<?xml version="1.0" encoding="UTF-8"?>
<svg version="1.0" viewBox="1.56 0 484.96 111.7" xmlns="http://www.w3.org/2000/svg" zoomAndPan="magnify">
<defs>
<clipPath id="ck">
<path d="m41.266 81.02h6.043v6.0391h-6.043z"/>
</clipPath>
<clipPath id="t">
<path d="m44.289 81.02c-1.668 0-3.0234 1.3516-3.0234 3.0195 0 1.668 1.3555 3.0195 3.0234 3.0195 1.668 0 3.0195-1.3516 3.0195-3.0195 0-1.668-1.3516-3.0195-3.0195-3.0195z"/>
</clipPath>
<clipPath id="bz">
<path d="m41.266 72.324h6.043v6.0391h-6.043z"/>
</clipPath>
<clipPath id="g">
<path d="m44.289 72.324c-1.668 0-3.0234 1.3516-3.0234 3.0195s1.3555 3.0195 3.0234 3.0195c1.668 0 3.0195-1.3516 3.0195-3.0195s-1.3516-3.0195-3.0195-3.0195z"/>
</clipPath>
<clipPath id="n">
<path d="m74.262 81.02h6.0391v6.0391h-6.0391z"/>
</clipPath>
<clipPath id="ao">
<path d="m77.281 81.02c-1.668 0-3.0195 1.3516-3.0195 3.0195 0 1.668 1.3516 3.0195 3.0195 3.0195s3.0195-1.3516 3.0195-3.0195c0-1.668-1.3516-3.0195-3.0195-3.0195z"/>
</clipPath>
<clipPath id="ci">
<path d="m74.262 72.324h6.0391v6.0391h-6.0391z"/>
</clipPath>
<clipPath id="aj">
<path d="m77.281 72.324c-1.668 0-3.0195 1.3516-3.0195 3.0195s1.3516 3.0195 3.0195 3.0195 3.0195-1.3516 3.0195-3.0195-1.3516-3.0195-3.0195-3.0195z"/>
</clipPath>
<clipPath id="y">
<path d="m107.3 81.02h6.043v6.0391h-6.043z"/>
</clipPath>
<clipPath id="bg">
<path d="m110.32 81.02c-1.668 0-3.0195 1.3516-3.0195 3.0195 0 1.668 1.3516 3.0195 3.0195 3.0195 1.668 0 3.0234-1.3516 3.0234-3.0195 0-1.668-1.3555-3.0195-3.0234-3.0195z"/>
</clipPath>
<clipPath id="h">
<path d="m107.3 72.324h6.043v6.0391h-6.043z"/>
</clipPath>
<clipPath id="aa">
<path d="m110.32 72.324c-1.668 0-3.0195 1.3516-3.0195 3.0195s1.3516 3.0195 3.0195 3.0195c1.668 0 3.0234-1.3516 3.0234-3.0195s-1.3555-3.0195-3.0234-3.0195z"/>
</clipPath>
<clipPath id="ai">
<path d="m140.34 81.02h6.0391v6.0391h-6.0391z"/>
</clipPath>
<clipPath id="bb">
<path d="m143.36 81.02c-1.668 0-3.0195 1.3516-3.0195 3.0195 0 1.668 1.3516 3.0195 3.0195 3.0195s3.0195-1.3516 3.0195-3.0195c0-1.668-1.3516-3.0195-3.0195-3.0195z"/>
</clipPath>
<clipPath id="cj">
<path d="m140.34 72.324h6.0391v6.0391h-6.0391z"/>
</clipPath>
<clipPath id="ca">
<path d="m143.36 72.324c-1.668 0-3.0195 1.3516-3.0195 3.0195s1.3516 3.0195 3.0195 3.0195 3.0195-1.3516 3.0195-3.0195-1.3516-3.0195-3.0195-3.0195z"/>
</clipPath>
<clipPath id="ay">
<path d="m173.38 81.02h6.0391v6.0391h-6.0391z"/>
</clipPath>
<clipPath id="f">
<path d="m176.4 81.02c-1.668 0-3.0195 1.3516-3.0195 3.0195 0 1.668 1.3516 3.0195 3.0195 3.0195 1.668 0 3.0195-1.3516 3.0195-3.0195 0-1.668-1.3516-3.0195-3.0195-3.0195z"/>
</clipPath>
<clipPath id="ab">
<path d="m173.38 72.324h6.0391v6.0391h-6.0391z"/>
</clipPath>
<clipPath id="o">
<path d="m176.4 72.324c-1.668 0-3.0195 1.3516-3.0195 3.0195s1.3516 3.0195 3.0195 3.0195c1.668 0 3.0195-1.3516 3.0195-3.0195s-1.3516-3.0195-3.0195-3.0195z"/>
</clipPath>
<clipPath id="bw">
<path d="m173.38 63.285h6.0391v6.0391h-6.0391z"/>
</clipPath>
<clipPath id="p">
<path d="m176.4 63.285c-1.668 0-3.0195 1.3516-3.0195 3.0195 0 1.668 1.3516 3.0195 3.0195 3.0195 1.668 0 3.0195-1.3516 3.0195-3.0195 0-1.668-1.3516-3.0195-3.0195-3.0195z"/>
</clipPath>
<clipPath id="bx">
<path d="m173.38 54.242h6.0391v6.043h-6.0391z"/>
</clipPath>
<clipPath id="ak">
<path d="m176.4 54.242c-1.668 0-3.0195 1.3516-3.0195 3.0195s1.3516 3.0234 3.0195 3.0234c1.668 0 3.0195-1.3555 3.0195-3.0234s-1.3516-3.0195-3.0195-3.0195z"/>
</clipPath>
<clipPath id="ch">
<path d="m173.38 45.203h6.0391v6.0391h-6.0391z"/>
</clipPath>
<clipPath id="m">
<path d="m176.4 45.203c-1.668 0-3.0195 1.3516-3.0195 3.0195 0 1.668 1.3516 3.0195 3.0195 3.0195 1.668 0 3.0195-1.3516 3.0195-3.0195 0-1.668-1.3516-3.0195-3.0195-3.0195z"/>
</clipPath>
<clipPath id="ah">
<path d="m173.38 36.16h6.0391v6.043h-6.0391z"/>
</clipPath>
<clipPath id="a">
<path d="m176.4 36.16c-1.668 0-3.0195 1.3555-3.0195 3.0234 0 1.668 1.3516 3.0195 3.0195 3.0195 1.668 0 3.0195-1.3516 3.0195-3.0195 0-1.668-1.3516-3.0234-3.0195-3.0234z"/>
</clipPath>
<clipPath id="x">
<path d="m173.38 27.121h6.0391v6.0391h-6.0391z"/>
</clipPath>
<clipPath id="q">
<path d="m176.4 27.121c-1.668 0-3.0195 1.3516-3.0195 3.0195s1.3516 3.0195 3.0195 3.0195c1.668 0 3.0195-1.3516 3.0195-3.0195s-1.3516-3.0195-3.0195-3.0195z"/>
</clipPath>
<clipPath id="as">
<path d="m173.38 18.082h6.0391v6.0391h-6.0391z"/>
</clipPath>
<clipPath id="bm">
<path d="m176.4 18.082c-1.668 0-3.0195 1.3516-3.0195 3.0195 0 1.668 1.3516 3.0195 3.0195 3.0195 1.668 0 3.0195-1.3516 3.0195-3.0195 0-1.668-1.3516-3.0195-3.0195-3.0195z"/>
</clipPath>
<clipPath id="i">
<path d="m173.38 9.0391h6.0391v6.043h-6.0391z"/>
</clipPath>
<clipPath id="aw">
<path d="m176.4 9.0391c-1.668 0-3.0195 1.3555-3.0195 3.0234s1.3516 3.0195 3.0195 3.0195c1.668 0 3.0195-1.3516 3.0195-3.0195s-1.3516-3.0234-3.0195-3.0234z"/>
</clipPath>
<clipPath id="ct">
<path d="m173.38 0h6.0391v6.0391h-6.0391z"/>
</clipPath>
<clipPath id="br">
<path d="m176.4 0c-1.668 0-3.0195 1.3516-3.0195 3.0195s1.3516 3.0195 3.0195 3.0195c1.668 0 3.0195-1.3516 3.0195-3.0195s-1.3516-3.0195-3.0195-3.0195z"/>
</clipPath>
<clipPath id="c">
<path d="m239.42 81.02h6.043v6.0391h-6.043z"/>
</clipPath>
<clipPath id="ax">
<path d="m242.45 81.02c-1.668 0-3.0234 1.3516-3.0234 3.0195 0 1.668 1.3555 3.0195 3.0234 3.0195 1.668 0 3.0195-1.3516 3.0195-3.0195 0-1.668-1.3516-3.0195-3.0195-3.0195z"/>
</clipPath>
<clipPath id="al">
<path d="m239.42 72.324h6.043v6.0391h-6.043z"/>
</clipPath>
<clipPath id="cg">
<path d="m242.45 72.324c-1.668 0-3.0234 1.3516-3.0234 3.0195s1.3555 3.0195 3.0234 3.0195c1.668 0 3.0195-1.3516 3.0195-3.0195s-1.3516-3.0195-3.0195-3.0195z"/>
</clipPath>
<clipPath id="av">
<path d="m239.42 63.285h6.043v6.0391h-6.043z"/>
</clipPath>
<clipPath id="bl">
<path d="m242.45 63.285c-1.668 0-3.0234 1.3516-3.0234 3.0195 0 1.668 1.3555 3.0195 3.0234 3.0195 1.668 0 3.0195-1.3516 3.0195-3.0195 0-1.668-1.3516-3.0195-3.0195-3.0195z"/>
</clipPath>
<clipPath id="b">
<path d="m239.42 54.242h6.043v6.043h-6.043z"/>
</clipPath>
<clipPath id="af">
<path d="m242.45 54.242c-1.668 0-3.0234 1.3516-3.0234 3.0195s1.3555 3.0234 3.0234 3.0234c1.668 0 3.0195-1.3555 3.0195-3.0234s-1.3516-3.0195-3.0195-3.0195z"/>
</clipPath>
<clipPath id="l">
<path d="m239.42 45.203h6.043v6.0391h-6.043z"/>
</clipPath>
<clipPath id="ar">
<path d="m242.45 45.203c-1.668 0-3.0234 1.3516-3.0234 3.0195 0 1.668 1.3555 3.0195 3.0234 3.0195 1.668 0 3.0195-1.3516 3.0195-3.0195 0-1.668-1.3516-3.0195-3.0195-3.0195z"/>
</clipPath>
<clipPath id="cr">
<path d="m239.42 36.16h6.043v6.043h-6.043z"/>
</clipPath>
<clipPath id="ap">
<path d="m242.45 36.16c-1.668 0-3.0234 1.3555-3.0234 3.0234 0 1.668 1.3555 3.0195 3.0234 3.0195 1.668 0 3.0195-1.3516 3.0195-3.0195 0-1.668-1.3516-3.0234-3.0195-3.0234z"/>
</clipPath>
<clipPath id="bs">
<path d="m239.42 27.121h6.043v6.0391h-6.043z"/>
</clipPath>
<clipPath id="bj">
<path d="m242.45 27.121c-1.668 0-3.0234 1.3516-3.0234 3.0195s1.3555 3.0195 3.0234 3.0195c1.668 0 3.0195-1.3516 3.0195-3.0195s-1.3516-3.0195-3.0195-3.0195z"/>
</clipPath>
<clipPath id="cm">
<path d="m239.42 18.082h6.043v6.0391h-6.043z"/>
</clipPath>
<clipPath id="s">
<path d="m242.45 18.082c-1.668 0-3.0234 1.3516-3.0234 3.0195 0 1.668 1.3555 3.0195 3.0234 3.0195 1.668 0 3.0195-1.3516 3.0195-3.0195 0-1.668-1.3516-3.0195-3.0195-3.0195z"/>
</clipPath>
<clipPath id="r">
<path d="m239.42 9.0391h6.043v6.043h-6.043z"/>
</clipPath>
<clipPath id="by">
<path d="m242.45 9.0391c-1.668 0-3.0234 1.3555-3.0234 3.0234s1.3555 3.0195 3.0234 3.0195c1.668 0 3.0195-1.3516 3.0195-3.0195s-1.3516-3.0234-3.0195-3.0234z"/>
</clipPath>
<clipPath id="bt">
<path d="m239.42 0h6.043v6.0391h-6.043z"/>
</clipPath>
<clipPath id="am">
<path d="m242.45 0c-1.668 0-3.0234 1.3516-3.0234 3.0195s1.3555 3.0195 3.0234 3.0195c1.668 0 3.0195-1.3516 3.0195-3.0195s-1.3516-3.0195-3.0195-3.0195z"/>
</clipPath>
<clipPath id="cu">
<path d="m207.33 81.02h6.0391v6.0391h-6.0391z"/>
</clipPath>
<clipPath id="k">
<path d="m210.35 81.02c-1.668 0-3.0195 1.3516-3.0195 3.0195 0 1.668 1.3516 3.0195 3.0195 3.0195 1.668 0 3.0195-1.3516 3.0195-3.0195 0-1.668-1.3516-3.0195-3.0195-3.0195z"/>
</clipPath>
<clipPath id="an">
<path d="m207.33 72.324h6.0391v6.0391h-6.0391z"/>
</clipPath>
<clipPath id="bq">
<path d="m210.35 72.324c-1.668 0-3.0195 1.3516-3.0195 3.0195s1.3516 3.0195 3.0195 3.0195c1.668 0 3.0195-1.3516 3.0195-3.0195s-1.3516-3.0195-3.0195-3.0195z"/>
</clipPath>
<clipPath id="bd">
<path d="m207.33 63.285h6.0391v6.0391h-6.0391z"/>
</clipPath>
<clipPath id="cd">
<path d="m210.35 63.285c-1.668 0-3.0195 1.3516-3.0195 3.0195 0 1.668 1.3516 3.0195 3.0195 3.0195 1.668 0 3.0195-1.3516 3.0195-3.0195 0-1.668-1.3516-3.0195-3.0195-3.0195z"/>
</clipPath>
<clipPath id="cc">
<path d="m207.33 54.242h6.0391v6.043h-6.0391z"/>
</clipPath>
<clipPath id="ae">
<path d="m210.35 54.242c-1.668 0-3.0195 1.3516-3.0195 3.0195s1.3516 3.0234 3.0195 3.0234c1.668 0 3.0195-1.3555 3.0195-3.0234s-1.3516-3.0195-3.0195-3.0195z"/>
</clipPath>
<clipPath id="j">
<path d="m207.33 45.203h6.0391v6.0391h-6.0391z"/>
</clipPath>
<clipPath id="bo">
<path d="m210.35 45.203c-1.668 0-3.0195 1.3516-3.0195 3.0195 0 1.668 1.3516 3.0195 3.0195 3.0195 1.668 0 3.0195-1.3516 3.0195-3.0195 0-1.668-1.3516-3.0195-3.0195-3.0195z"/>
</clipPath>
<clipPath id="ac">
<path d="m207.33 36.16h6.0391v6.043h-6.0391z"/>
</clipPath>
<clipPath id="co">
<path d="m210.35 36.16c-1.668 0-3.0195 1.3555-3.0195 3.0234 0 1.668 1.3516 3.0195 3.0195 3.0195 1.668 0 3.0195-1.3516 3.0195-3.0195 0-1.668-1.3516-3.0234-3.0195-3.0234z"/>
</clipPath>
<clipPath id="bi">
<path d="m207.33 27.121h6.0391v6.0391h-6.0391z"/>
</clipPath>
<clipPath id="at">
<path d="m210.35 27.121c-1.668 0-3.0195 1.3516-3.0195 3.0195s1.3516 3.0195 3.0195 3.0195c1.668 0 3.0195-1.3516 3.0195-3.0195s-1.3516-3.0195-3.0195-3.0195z"/>
</clipPath>
<clipPath id="cb">
<path d="m273.7 81.02h6.043v6.0391h-6.043z"/>
</clipPath>
<clipPath id="z">
<path d="m276.72 81.02c-1.668 0-3.0234 1.3516-3.0234 3.0195 0 1.668 1.3555 3.0195 3.0234 3.0195 1.668 0 3.0195-1.3516 3.0195-3.0195 0-1.668-1.3516-3.0195-3.0195-3.0195z"/>
</clipPath>
<clipPath id="u">
<path d="m273.7 72.324h6.043v6.0391h-6.043z"/>
</clipPath>
<clipPath id="bc">
<path d="m276.72 72.324c-1.668 0-3.0234 1.3516-3.0234 3.0195s1.3555 3.0195 3.0234 3.0195c1.668 0 3.0195-1.3516 3.0195-3.0195s-1.3516-3.0195-3.0195-3.0195z"/>
</clipPath>
<clipPath id="cf">
<path d="m306.74 81.02h6.0391v6.0391h-6.0391z"/>
</clipPath>
<clipPath id="bh">
<path d="m309.76 81.02c-1.668 0-3.0195 1.3516-3.0195 3.0195 0 1.668 1.3516 3.0195 3.0195 3.0195s3.0195-1.3516 3.0195-3.0195c0-1.668-1.3516-3.0195-3.0195-3.0195z"/>
</clipPath>
<clipPath id="aq">
<path d="m306.74 72.324h6.0391v6.0391h-6.0391z"/>
</clipPath>
<clipPath id="au">
<path d="m309.76 72.324c-1.668 0-3.0195 1.3516-3.0195 3.0195s1.3516 3.0195 3.0195 3.0195 3.0195-1.3516 3.0195-3.0195-1.3516-3.0195-3.0195-3.0195z"/>
</clipPath>
<clipPath id="cp">
<path d="m306.74 63.285h6.0391v6.0391h-6.0391z"/>
</clipPath>
<clipPath id="cq">
<path d="m309.76 63.285c-1.668 0-3.0195 1.3516-3.0195 3.0195 0 1.668 1.3516 3.0195 3.0195 3.0195s3.0195-1.3516 3.0195-3.0195c0-1.668-1.3516-3.0195-3.0195-3.0195z"/>
</clipPath>
<clipPath id="ag">
<path d="m306.74 54.242h6.0391v6.043h-6.0391z"/>
</clipPath>
<clipPath id="cv">
<path d="m309.76 54.242c-1.668 0-3.0195 1.3516-3.0195 3.0195s1.3516 3.0234 3.0195 3.0234 3.0195-1.3555 3.0195-3.0234-1.3516-3.0195-3.0195-3.0195z"/>
</clipPath>
<clipPath id="w">
<path d="m340.32 81.02h6.0391v6.0391h-6.0391z"/>
</clipPath>
<clipPath id="bn">
<path d="m343.34 81.02c-1.668 0-3.0195 1.3516-3.0195 3.0195 0 1.668 1.3516 3.0195 3.0195 3.0195 1.668 0 3.0195-1.3516 3.0195-3.0195 0-1.668-1.3516-3.0195-3.0195-3.0195z"/>
</clipPath>
<clipPath id="d">
<path d="m340.32 72.324h6.0391v6.0391h-6.0391z"/>
</clipPath>
<clipPath id="cs">
<path d="m343.34 72.324c-1.668 0-3.0195 1.3516-3.0195 3.0195s1.3516 3.0195 3.0195 3.0195c1.668 0 3.0195-1.3516 3.0195-3.0195s-1.3516-3.0195-3.0195-3.0195z"/>
</clipPath>
<clipPath id="cl">
<path d="m340.32 63.285h6.0391v6.0391h-6.0391z"/>
</clipPath>
<clipPath id="v">
<path d="m343.34 63.285c-1.668 0-3.0195 1.3516-3.0195 3.0195 0 1.668 1.3516 3.0195 3.0195 3.0195 1.668 0 3.0195-1.3516 3.0195-3.0195 0-1.668-1.3516-3.0195-3.0195-3.0195z"/>
</clipPath>
<clipPath id="az">
<path d="m340.32 54.242h6.0391v6.043h-6.0391z"/>
</clipPath>
<clipPath id="ce">
<path d="m343.34 54.242c-1.668 0-3.0195 1.3516-3.0195 3.0195s1.3516 3.0234 3.0195 3.0234c1.668 0 3.0195-1.3555 3.0195-3.0234s-1.3516-3.0195-3.0195-3.0195z"/>
</clipPath>
<clipPath id="bv">
<path d="m340.32 45.203h6.0391v6.0391h-6.0391z"/>
</clipPath>
<clipPath id="bk">
<path d="m343.34 45.203c-1.668 0-3.0195 1.3516-3.0195 3.0195 0 1.668 1.3516 3.0195 3.0195 3.0195 1.668 0 3.0195-1.3516 3.0195-3.0195 0-1.668-1.3516-3.0195-3.0195-3.0195z"/>
</clipPath>
<clipPath id="ba">
<path d="m373.36 81.02h6.043v6.0391h-6.043z"/>
</clipPath>
<clipPath id="e">
<path d="m376.38 81.02c-1.668 0-3.0195 1.3516-3.0195 3.0195 0 1.668 1.3516 3.0195 3.0195 3.0195s3.0234-1.3516 3.0234-3.0195c0-1.668-1.3555-3.0195-3.0234-3.0195z"/>
</clipPath>
<clipPath id="bf">
<path d="m406.34 81.02h6.0391v6.0391h-6.0391z"/>
</clipPath>
<clipPath id="ad">
<path d="m409.36 81.02c-1.668 0-3.0195 1.3516-3.0195 3.0195 0 1.668 1.3516 3.0195 3.0195 3.0195s3.0195-1.3516 3.0195-3.0195c0-1.668-1.3516-3.0195-3.0195-3.0195z"/>
</clipPath>
<clipPath id="bp">
<path d="m406.34 72.324h6.0391v6.0391h-6.0391z"/>
</clipPath>
<clipPath id="be">
<path d="m409.36 72.324c-1.668 0-3.0195 1.3516-3.0195 3.0195s1.3516 3.0195 3.0195 3.0195 3.0195-1.3516 3.0195-3.0195-1.3516-3.0195-3.0195-3.0195z"/>
</clipPath>
<clipPath id="bu">
<path d="m439.38 81.02h6.0391v6.0391h-6.0391z"/>
</clipPath>
<clipPath id="cn">
<path d="m442.4 81.02c-1.668 0-3.0195 1.3516-3.0195 3.0195 0 1.668 1.3516 3.0195 3.0195 3.0195 1.668 0 3.0195-1.3516 3.0195-3.0195 0-1.668-1.3516-3.0195-3.0195-3.0195z"/>
</clipPath>
</defs>
<path transform="matrix(.75 0 0 .75 11.265 91.64)" d="m0.0013028 2.0006h619" fill="none" stroke="#fefefe" stroke-width="4"/>
<path transform="matrix(0 .75 -.75 0 278.22 93.141)" d="m-1.0869e-4 2.0024h7.4219" fill="none" stroke="#fefefe" stroke-width="4"/>
<path transform="matrix(0 .75 -.75 0 344.84 93.141)" d="m-1.0869e-4 1.9996h7.4219" fill="none" stroke="#fefefe" stroke-width="4"/>
<path transform="matrix(0 .75 -.75 0 410.86 93.141)" d="m-1.0869e-4 1.9979h7.4219" fill="none" stroke="#fefefe" stroke-width="4"/>
<path transform="matrix(0 .75 -.75 0 14.264 93.141)" d="m-1.0869e-4 1.998h7.4219" fill="none" stroke="#fefefe" stroke-width="4"/>
<path transform="matrix(0 .75 -.75 0 78.781 93.141)" d="m-1.0869e-4 1.9998h7.4219" fill="none" stroke="#fefefe" stroke-width="4"/>
<path transform="matrix(0 .75 -.75 0 144.78 93.141)" d="m-1.0869e-4 1.9998h7.4219" fill="none" stroke="#fefefe" stroke-width="4"/>
<path transform="matrix(0 .75 -.75 0 211.85 93.141)" d="m-1.0869e-4 1.9977h7.4219" fill="none" stroke="#fefefe" stroke-width="4"/>
<path transform="matrix(0 .75 -.75 0 475.51 93.141)" d="m-1.0869e-4 1.998h7.4219" fill="none" stroke="#fefefe" stroke-width="4"/>
<g clip-path="url(#ck)">
<g clip-path="url(#t)">
<path d="m41.266 81.02h6.043v6.0391h-6.043z" fill="#fefefe"/>
</g>
</g>
<g clip-path="url(#bz)">
<g clip-path="url(#g)">
<path d="m41.266 72.324h6.043v6.0391h-6.043z" fill="#fefefe"/>
</g>
</g>
<g clip-path="url(#n)">
<g clip-path="url(#ao)">
<path d="m74.262 81.02h6.0391v6.0391h-6.0391z" fill="#fefefe"/>
</g>
</g>
<g clip-path="url(#ci)">
<g clip-path="url(#aj)">
<path d="m74.262 72.324h6.0391v6.0391h-6.0391z" fill="#fefefe"/>
</g>
</g>
<g clip-path="url(#y)">
<g clip-path="url(#bg)">
<path d="m107.3 81.02h6.043v6.0391h-6.043z" fill="#fefefe"/>
</g>
</g>
<g clip-path="url(#h)">
<g clip-path="url(#aa)">
<path d="m107.3 72.324h6.043v6.0391h-6.043z" fill="#fefefe"/>
</g>
</g>
<g clip-path="url(#ai)">
<g clip-path="url(#bb)">
<path d="m140.34 81.02h6.0391v6.0391h-6.0391z" fill="#fefefe"/>
</g>
</g>
<g clip-path="url(#cj)">
<g clip-path="url(#ca)">
<path d="m140.34 72.324h6.0391v6.0391h-6.0391z" fill="#fefefe"/>
</g>
</g>
<g clip-path="url(#ay)">
<g clip-path="url(#f)">
<path d="m173.38 81.02h6.0391v6.0391h-6.0391z" fill="#fefefe"/>
</g>
</g>
<g clip-path="url(#ab)">
<g clip-path="url(#o)">
<path d="m173.38 72.324h6.0391v6.0391h-6.0391z" fill="#fefefe"/>
</g>
</g>
<g clip-path="url(#bw)">
<g clip-path="url(#p)">
<path d="m173.38 63.285h6.0391v6.0391h-6.0391z" fill="#fefefe"/>
</g>
</g>
<g clip-path="url(#bx)">
<g clip-path="url(#ak)">
<path d="m173.38 54.242h6.0391v6.043h-6.0391z" fill="#fefefe"/>
</g>
</g>
<g clip-path="url(#ch)">
<g clip-path="url(#m)">
<path d="m173.38 45.203h6.0391v6.0391h-6.0391z" fill="#fefefe"/>
</g>
</g>
<g clip-path="url(#ah)">
<g clip-path="url(#a)">
<path d="m173.38 36.16h6.0391v6.043h-6.0391z" fill="#fefefe"/>
</g>
</g>
<g clip-path="url(#x)">
<g clip-path="url(#q)">
<path d="m173.38 27.121h6.0391v6.0391h-6.0391z" fill="#fefefe"/>
</g>
</g>
<g clip-path="url(#as)">
<g clip-path="url(#bm)">
<path d="m173.38 18.082h6.0391v6.0391h-6.0391z" fill="#fefefe"/>
</g>
</g>
<g clip-path="url(#i)">
<g clip-path="url(#aw)">
<path d="m173.38 9.0391h6.0391v6.043h-6.0391z" fill="#fefefe"/>
</g>
</g>
<g clip-path="url(#ct)">
<g clip-path="url(#br)">
<path d="m173.38 0h6.0391v6.0391h-6.0391z" fill="#fefefe"/>
</g>
</g>
<g clip-path="url(#c)">
<g clip-path="url(#ax)">
<path d="m239.42 81.02h6.043v6.0391h-6.043z" fill="#fefefe"/>
</g>
</g>
<g clip-path="url(#al)">
<g clip-path="url(#cg)">
<path d="m239.42 72.324h6.043v6.0391h-6.043z" fill="#fefefe"/>
</g>
</g>
<g clip-path="url(#av)">
<g clip-path="url(#bl)">
<path d="m239.42 63.285h6.043v6.0391h-6.043z" fill="#fefefe"/>
</g>
</g>
<g clip-path="url(#b)">
<g clip-path="url(#af)">
<path d="m239.42 54.242h6.043v6.043h-6.043z" fill="#fefefe"/>
</g>
</g>
<g clip-path="url(#l)">
<g clip-path="url(#ar)">
<path d="m239.42 45.203h6.043v6.0391h-6.043z" fill="#fefefe"/>
</g>
</g>
<g clip-path="url(#cr)">
<g clip-path="url(#ap)">
<path d="m239.42 36.16h6.043v6.043h-6.043z" fill="#fefefe"/>
</g>
</g>
<g clip-path="url(#bs)">
<g clip-path="url(#bj)">
<path d="m239.42 27.121h6.043v6.0391h-6.043z" fill="#fefefe"/>
</g>
</g>
<g clip-path="url(#cm)">
<g clip-path="url(#s)">
<path d="m239.42 18.082h6.043v6.0391h-6.043z" fill="#fefefe"/>
</g>
</g>
<g clip-path="url(#r)">
<g clip-path="url(#by)">
<path d="m239.42 9.0391h6.043v6.043h-6.043z" fill="#fefefe"/>
</g>
</g>
<g clip-path="url(#bt)">
<g clip-path="url(#am)">
<path d="m239.42 0h6.043v6.0391h-6.043z" fill="#fefefe"/>
</g>
</g>
<g clip-path="url(#cu)">
<g clip-path="url(#k)">
<path d="m207.33 81.02h6.0391v6.0391h-6.0391z" fill="#fefefe"/>
</g>
</g>
<g clip-path="url(#an)">
<g clip-path="url(#bq)">
<path d="m207.33 72.324h6.0391v6.0391h-6.0391z" fill="#fefefe"/>
</g>
</g>
<g clip-path="url(#bd)">
<g clip-path="url(#cd)">
<path d="m207.33 63.285h6.0391v6.0391h-6.0391z" fill="#fefefe"/>
</g>
</g>
<g clip-path="url(#cc)">
<g clip-path="url(#ae)">
<path d="m207.33 54.242h6.0391v6.043h-6.0391z" fill="#fefefe"/>
</g>
</g>
<g clip-path="url(#j)">
<g clip-path="url(#bo)">
<path d="m207.33 45.203h6.0391v6.0391h-6.0391z" fill="#fefefe"/>
</g>
</g>
<g clip-path="url(#ac)">
<g clip-path="url(#co)">
<path d="m207.33 36.16h6.0391v6.043h-6.0391z" fill="#fefefe"/>
</g>
</g>
<g clip-path="url(#bi)">
<g clip-path="url(#at)">
<path d="m207.33 27.121h6.0391v6.0391h-6.0391z" fill="#fefefe"/>
</g>
</g>
<g clip-path="url(#cb)">
<g clip-path="url(#z)">
<path d="m273.7 81.02h6.043v6.0391h-6.043z" fill="#fefefe"/>
</g>
</g>
<g clip-path="url(#u)">
<g clip-path="url(#bc)">
<path d="m273.7 72.324h6.043v6.0391h-6.043z" fill="#fefefe"/>
</g>
</g>
<g clip-path="url(#cf)">
<g clip-path="url(#bh)">
<path d="m306.74 81.02h6.0391v6.0391h-6.0391z" fill="#fefefe"/>
</g>
</g>
<g clip-path="url(#aq)">
<g clip-path="url(#au)">
<path d="m306.74 72.324h6.0391v6.0391h-6.0391z" fill="#fefefe"/>
</g>
</g>
<g clip-path="url(#cp)">
<g clip-path="url(#cq)">
<path d="m306.74 63.285h6.0391v6.0391h-6.0391z" fill="#fefefe"/>
</g>
</g>
<g clip-path="url(#ag)">
<g clip-path="url(#cv)">
<path d="m306.74 54.242h6.0391v6.043h-6.0391z" fill="#fefefe"/>
</g>
</g>
<g clip-path="url(#w)">
<g clip-path="url(#bn)">
<path d="m340.32 81.02h6.0391v6.0391h-6.0391z" fill="#fefefe"/>
</g>
</g>
<g clip-path="url(#d)">
<g clip-path="url(#cs)">
<path d="m340.32 72.324h6.0391v6.0391h-6.0391z" fill="#fefefe"/>
</g>
</g>
<g clip-path="url(#cl)">
<g clip-path="url(#v)">
<path d="m340.32 63.285h6.0391v6.0391h-6.0391z" fill="#fefefe"/>
</g>
</g>
<g clip-path="url(#az)">
<g clip-path="url(#ce)">
<path d="m340.32 54.242h6.0391v6.043h-6.0391z" fill="#fefefe"/>
</g>
</g>
<g clip-path="url(#bv)">
<g clip-path="url(#bk)">
<path d="m340.32 45.203h6.0391v6.0391h-6.0391z" fill="#fefefe"/>
</g>
</g>
<g clip-path="url(#ba)">
<g clip-path="url(#e)">
<path d="m373.36 81.02h6.043v6.0391h-6.043z" fill="#fefefe"/>
</g>
</g>
<g clip-path="url(#bf)">
<g clip-path="url(#ad)">
<path d="m406.34 81.02h6.0391v6.0391h-6.0391z" fill="#fefefe"/>
</g>
</g>
<g clip-path="url(#bp)">
<g clip-path="url(#be)">
<path d="m406.34 72.324h6.0391v6.0391h-6.0391z" fill="#fefefe"/>
</g>
</g>
<g clip-path="url(#bu)">
<g clip-path="url(#cn)">
<path d="m439.38 81.02h6.0391v6.0391h-6.0391z" fill="#fefefe"/>
</g>
</g>
<g fill="#fefefe">
<g transform="translate(1.5 111.56)">
<path d="m4.4219-5.6875c0.95703 0.09375 1.6875 0.39062 2.1875 0.89062 0.50781 0.5 0.76562 1.1367 0.76562 1.9062 0 0.5625-0.14062 1.0742-0.42188 1.5312-0.28125 0.44922-0.69922 0.80859-1.25 1.0781-0.55469 0.26172-1.2305 0.39062-2.0312 0.39062-0.69922 0-1.3711-0.10547-2.0156-0.3125-0.64844-0.20703-1.1797-0.5-1.5938-0.875l0.65625-1.1094c0.33203 0.32422 0.75781 0.57812 1.2812 0.76562 0.51953 0.1875 1.0781 0.28125 1.6719 0.28125 0.72656 0 1.2969-0.14844 1.7031-0.45312 0.40625-0.3125 0.60938-0.73828 0.60938-1.2812 0-0.53906-0.20312-0.95703-0.60938-1.25-0.39844-0.30078-1-0.45312-1.8125-0.45312h-0.79688v-0.98438l2.4688-3.0156h-4.7188v-1.2188h6.4688v0.95312z"/>
</g>
</g>
<g fill="#fefefe">
<g transform="translate(9.5035 111.56)">
<path d="m3.7031-9.7969v9.7969h-1.375v-8.5781h-2.2188v-1.2188z"/>
</g>
</g>
<g fill="#fefefe">
<g transform="translate(14.681 111.56)">
<path d="m4.6719 0.10938c-0.77344 0-1.4609-0.19531-2.0625-0.59375-0.60547-0.39453-1.0781-0.96875-1.4219-1.7188-0.34375-0.75781-0.51562-1.6602-0.51562-2.7031 0-1.0312 0.17188-1.9219 0.51562-2.6719 0.34375-0.75781 0.81641-1.3359 1.4219-1.7344 0.60156-0.39453 1.2891-0.59375 2.0625-0.59375 0.76953 0 1.4531 0.19922 2.0469 0.59375 0.60156 0.39844 1.0781 0.97656 1.4219 1.7344 0.35156 0.75 0.53125 1.6406 0.53125 2.6719 0 1.043-0.17969 1.9453-0.53125 2.7031-0.34375 0.75-0.82031 1.3242-1.4219 1.7188-0.59375 0.39844-1.2773 0.59375-2.0469 0.59375zm0-1.25c0.78906 0 1.4219-0.31641 1.8906-0.95312 0.46875-0.64453 0.70312-1.582 0.70312-2.8125 0-1.2188-0.23438-2.1484-0.70312-2.7969-0.46875-0.64453-1.1016-0.96875-1.8906-0.96875-0.79297 0-1.4219 0.32422-1.8906 0.96875-0.46875 0.64844-0.70312 1.5781-0.70312 2.7969 0 1.2305 0.23438 2.168 0.70312 2.8125 0.46875 0.63672 1.0977 0.95312 1.8906 0.95312z"/>
</g>
</g>
<g fill="#fefefe">
<g transform="translate(64.59 111.6)">
<path d="m4.4219-5.6875c0.95703 0.09375 1.6875 0.39062 2.1875 0.89062 0.50781 0.5 0.76562 1.1367 0.76562 1.9062 0 0.5625-0.14062 1.0742-0.42188 1.5312-0.28125 0.44922-0.69922 0.80859-1.25 1.0781-0.55469 0.26172-1.2305 0.39062-2.0312 0.39062-0.69922 0-1.3711-0.10547-2.0156-0.3125-0.64844-0.20703-1.1797-0.5-1.5938-0.875l0.65625-1.1094c0.33203 0.32422 0.75781 0.57812 1.2812 0.76562 0.51953 0.1875 1.0781 0.28125 1.6719 0.28125 0.72656 0 1.2969-0.14844 1.7031-0.45312 0.40625-0.3125 0.60938-0.73828 0.60938-1.2812 0-0.53906-0.20312-0.95703-0.60938-1.25-0.39844-0.30078-1-0.45312-1.8125-0.45312h-0.79688v-0.98438l2.4688-3.0156h-4.7188v-1.2188h6.4688v0.95312z"/>
</g>
</g>
<g fill="#fefefe">
<g transform="translate(72.594 111.6)">
<path d="m7.5625-1.2188v1.2188h-7.0469v-0.95312l4-3.8438c0.47656-0.46875 0.80078-0.875 0.96875-1.2188 0.16406-0.34375 0.25-0.6875 0.25-1.0312 0-0.50781-0.18359-0.90625-0.54688-1.1875-0.35547-0.28906-0.86719-0.4375-1.5312-0.4375-1.0859 0-1.9219 0.35547-2.5156 1.0625l-0.9375-0.8125c0.375-0.46875 0.86719-0.83203 1.4844-1.0938 0.625-0.25781 1.3203-0.39062 2.0938-0.39062 1.0195 0 1.832 0.24609 2.4375 0.73438 0.61328 0.49219 0.92188 1.1523 0.92188 1.9844 0 0.53125-0.11719 1.0312-0.34375 1.5-0.21875 0.46094-0.64062 0.98438-1.2656 1.5781l-3 2.8906z"/>
</g>
</g>
<g fill="#fefefe">
<g transform="translate(80.625 111.6)">
<path d="m4.6719 0.10938c-0.77344 0-1.4609-0.19531-2.0625-0.59375-0.60547-0.39453-1.0781-0.96875-1.4219-1.7188-0.34375-0.75781-0.51562-1.6602-0.51562-2.7031 0-1.0312 0.17188-1.9219 0.51562-2.6719 0.34375-0.75781 0.81641-1.3359 1.4219-1.7344 0.60156-0.39453 1.2891-0.59375 2.0625-0.59375 0.76953 0 1.4531 0.19922 2.0469 0.59375 0.60156 0.39844 1.0781 0.97656 1.4219 1.7344 0.35156 0.75 0.53125 1.6406 0.53125 2.6719 0 1.043-0.17969 1.9453-0.53125 2.7031-0.34375 0.75-0.82031 1.3242-1.4219 1.7188-0.59375 0.39844-1.2773 0.59375-2.0469 0.59375zm0-1.25c0.78906 0 1.4219-0.31641 1.8906-0.95312 0.46875-0.64453 0.70312-1.582 0.70312-2.8125 0-1.2188-0.23438-2.1484-0.70312-2.7969-0.46875-0.64453-1.1016-0.96875-1.8906-0.96875-0.79297 0-1.4219 0.32422-1.8906 0.96875-0.46875 0.64844-0.70312 1.5781-0.70312 2.7969 0 1.2305 0.23438 2.168 0.70312 2.8125 0.46875 0.63672 1.0977 0.95312 1.8906 0.95312z"/>
</g>
</g>
<g fill="#fefefe">
<g transform="translate(130.69 111.56)">
<path d="m4.4219-5.6875c0.95703 0.09375 1.6875 0.39062 2.1875 0.89062 0.50781 0.5 0.76562 1.1367 0.76562 1.9062 0 0.5625-0.14062 1.0742-0.42188 1.5312-0.28125 0.44922-0.69922 0.80859-1.25 1.0781-0.55469 0.26172-1.2305 0.39062-2.0312 0.39062-0.69922 0-1.3711-0.10547-2.0156-0.3125-0.64844-0.20703-1.1797-0.5-1.5938-0.875l0.65625-1.1094c0.33203 0.32422 0.75781 0.57812 1.2812 0.76562 0.51953 0.1875 1.0781 0.28125 1.6719 0.28125 0.72656 0 1.2969-0.14844 1.7031-0.45312 0.40625-0.3125 0.60938-0.73828 0.60938-1.2812 0-0.53906-0.20312-0.95703-0.60938-1.25-0.39844-0.30078-1-0.45312-1.8125-0.45312h-0.79688v-0.98438l2.4688-3.0156h-4.7188v-1.2188h6.4688v0.95312z"/>
</g>
</g>
<g fill="#fefefe">
<g transform="translate(138.69 111.56)">
<path d="m4.4219-5.6875c0.95703 0.09375 1.6875 0.39062 2.1875 0.89062 0.50781 0.5 0.76562 1.1367 0.76562 1.9062 0 0.5625-0.14062 1.0742-0.42188 1.5312-0.28125 0.44922-0.69922 0.80859-1.25 1.0781-0.55469 0.26172-1.2305 0.39062-2.0312 0.39062-0.69922 0-1.3711-0.10547-2.0156-0.3125-0.64844-0.20703-1.1797-0.5-1.5938-0.875l0.65625-1.1094c0.33203 0.32422 0.75781 0.57812 1.2812 0.76562 0.51953 0.1875 1.0781 0.28125 1.6719 0.28125 0.72656 0 1.2969-0.14844 1.7031-0.45312 0.40625-0.3125 0.60938-0.73828 0.60938-1.2812 0-0.53906-0.20312-0.95703-0.60938-1.25-0.39844-0.30078-1-0.45312-1.8125-0.45312h-0.79688v-0.98438l2.4688-3.0156h-4.7188v-1.2188h6.4688v0.95312z"/>
</g>
</g>
<g fill="#fefefe">
<g transform="translate(146.69 111.56)">
<path d="m4.6719 0.10938c-0.77344 0-1.4609-0.19531-2.0625-0.59375-0.60547-0.39453-1.0781-0.96875-1.4219-1.7188-0.34375-0.75781-0.51562-1.6602-0.51562-2.7031 0-1.0312 0.17188-1.9219 0.51562-2.6719 0.34375-0.75781 0.81641-1.3359 1.4219-1.7344 0.60156-0.39453 1.2891-0.59375 2.0625-0.59375 0.76953 0 1.4531 0.19922 2.0469 0.59375 0.60156 0.39844 1.0781 0.97656 1.4219 1.7344 0.35156 0.75 0.53125 1.6406 0.53125 2.6719 0 1.043-0.17969 1.9453-0.53125 2.7031-0.34375 0.75-0.82031 1.3242-1.4219 1.7188-0.59375 0.39844-1.2773 0.59375-2.0469 0.59375zm0-1.25c0.78906 0 1.4219-0.31641 1.8906-0.95312 0.46875-0.64453 0.70312-1.582 0.70312-2.8125 0-1.2188-0.23438-2.1484-0.70312-2.7969-0.46875-0.64453-1.1016-0.96875-1.8906-0.96875-0.79297 0-1.4219 0.32422-1.8906 0.96875-0.46875 0.64844-0.70312 1.5781-0.70312 2.7969 0 1.2305 0.23438 2.168 0.70312 2.8125 0.46875 0.63672 1.0977 0.95312 1.8906 0.95312z"/>
</g>
</g>
<g fill="#fefefe">
<g transform="translate(196.99 111.56)">
<path d="m4.4219-5.6875c0.95703 0.09375 1.6875 0.39062 2.1875 0.89062 0.50781 0.5 0.76562 1.1367 0.76562 1.9062 0 0.5625-0.14062 1.0742-0.42188 1.5312-0.28125 0.44922-0.69922 0.80859-1.25 1.0781-0.55469 0.26172-1.2305 0.39062-2.0312 0.39062-0.69922 0-1.3711-0.10547-2.0156-0.3125-0.64844-0.20703-1.1797-0.5-1.5938-0.875l0.65625-1.1094c0.33203 0.32422 0.75781 0.57812 1.2812 0.76562 0.51953 0.1875 1.0781 0.28125 1.6719 0.28125 0.72656 0 1.2969-0.14844 1.7031-0.45312 0.40625-0.3125 0.60938-0.73828 0.60938-1.2812 0-0.53906-0.20312-0.95703-0.60938-1.25-0.39844-0.30078-1-0.45312-1.8125-0.45312h-0.79688v-0.98438l2.4688-3.0156h-4.7188v-1.2188h6.4688v0.95312z"/>
</g>
</g>
<g fill="#fefefe">
<g transform="translate(204.99 111.56)">
<path d="m9.2031-2.4062h-1.8594v2.4062h-1.3594v-2.4062h-5.4531v-0.98438l5.0156-6.4062h1.5156l-4.8125 6.1875h3.7656v-2.125h1.3281v2.125h1.8594z"/>
</g>
</g>
<g fill="#fefefe">
<g transform="translate(214.35 111.56)">
<path d="m4.6719 0.10938c-0.77344 0-1.4609-0.19531-2.0625-0.59375-0.60547-0.39453-1.0781-0.96875-1.4219-1.7188-0.34375-0.75781-0.51562-1.6602-0.51562-2.7031 0-1.0312 0.17188-1.9219 0.51562-2.6719 0.34375-0.75781 0.81641-1.3359 1.4219-1.7344 0.60156-0.39453 1.2891-0.59375 2.0625-0.59375 0.76953 0 1.4531 0.19922 2.0469 0.59375 0.60156 0.39844 1.0781 0.97656 1.4219 1.7344 0.35156 0.75 0.53125 1.6406 0.53125 2.6719 0 1.043-0.17969 1.9453-0.53125 2.7031-0.34375 0.75-0.82031 1.3242-1.4219 1.7188-0.59375 0.39844-1.2773 0.59375-2.0469 0.59375zm0-1.25c0.78906 0 1.4219-0.31641 1.8906-0.95312 0.46875-0.64453 0.70312-1.582 0.70312-2.8125 0-1.2188-0.23438-2.1484-0.70312-2.7969-0.46875-0.64453-1.1016-0.96875-1.8906-0.96875-0.79297 0-1.4219 0.32422-1.8906 0.96875-0.46875 0.64844-0.70312 1.5781-0.70312 2.7969 0 1.2305 0.23438 2.168 0.70312 2.8125 0.46875 0.63672 1.0977 0.95312 1.8906 0.95312z"/>
</g>
</g>
<g fill="#fefefe">
<g transform="translate(264.03 111.56)">
<path d="m4.4219-5.6875c0.95703 0.09375 1.6875 0.39062 2.1875 0.89062 0.50781 0.5 0.76562 1.1367 0.76562 1.9062 0 0.5625-0.14062 1.0742-0.42188 1.5312-0.28125 0.44922-0.69922 0.80859-1.25 1.0781-0.55469 0.26172-1.2305 0.39062-2.0312 0.39062-0.69922 0-1.3711-0.10547-2.0156-0.3125-0.64844-0.20703-1.1797-0.5-1.5938-0.875l0.65625-1.1094c0.33203 0.32422 0.75781 0.57812 1.2812 0.76562 0.51953 0.1875 1.0781 0.28125 1.6719 0.28125 0.72656 0 1.2969-0.14844 1.7031-0.45312 0.40625-0.3125 0.60938-0.73828 0.60938-1.2812 0-0.53906-0.20312-0.95703-0.60938-1.25-0.39844-0.30078-1-0.45312-1.8125-0.45312h-0.79688v-0.98438l2.4688-3.0156h-4.7188v-1.2188h6.4688v0.95312z"/>
</g>
</g>
<g fill="#fefefe">
<g transform="translate(272.03 111.56)">
<path d="m3.4688-5.8906c1.4062 0 2.4375 0.26562 3.0938 0.79688 0.65625 0.52344 0.98438 1.2422 0.98438 2.1562 0 0.57422-0.14062 1.0938-0.42188 1.5625-0.27344 0.46094-0.6875 0.82422-1.25 1.0938-0.55469 0.26172-1.2305 0.39062-2.0312 0.39062-0.69922 0-1.3711-0.10547-2.0156-0.3125-0.63672-0.20703-1.168-0.5-1.5938-0.875l0.64062-1.1094c0.34375 0.32422 0.77344 0.57812 1.2969 0.76562 0.51953 0.1875 1.0703 0.28125 1.6562 0.28125 0.72656 0 1.2969-0.15625 1.7031-0.46875s0.60938-0.73828 0.60938-1.2812c0-0.58203-0.22656-1.0234-0.67188-1.3281-0.44922-0.30078-1.2148-0.45312-2.2969-0.45312h-2.2188l0.51562-5.125h5.5312v1.2188h-4.3594l-0.26562 2.6875z"/>
</g>
</g>
<g fill="#fefefe">
<g transform="translate(280.06 111.56)">
<path d="m4.6719 0.10938c-0.77344 0-1.4609-0.19531-2.0625-0.59375-0.60547-0.39453-1.0781-0.96875-1.4219-1.7188-0.34375-0.75781-0.51562-1.6602-0.51562-2.7031 0-1.0312 0.17188-1.9219 0.51562-2.6719 0.34375-0.75781 0.81641-1.3359 1.4219-1.7344 0.60156-0.39453 1.2891-0.59375 2.0625-0.59375 0.76953 0 1.4531 0.19922 2.0469 0.59375 0.60156 0.39844 1.0781 0.97656 1.4219 1.7344 0.35156 0.75 0.53125 1.6406 0.53125 2.6719 0 1.043-0.17969 1.9453-0.53125 2.7031-0.34375 0.75-0.82031 1.3242-1.4219 1.7188-0.59375 0.39844-1.2773 0.59375-2.0469 0.59375zm0-1.25c0.78906 0 1.4219-0.31641 1.8906-0.95312 0.46875-0.64453 0.70312-1.582 0.70312-2.8125 0-1.2188-0.23438-2.1484-0.70312-2.7969-0.46875-0.64453-1.1016-0.96875-1.8906-0.96875-0.79297 0-1.4219 0.32422-1.8906 0.96875-0.46875 0.64844-0.70312 1.5781-0.70312 2.7969 0 1.2305 0.23438 2.168 0.70312 2.8125 0.46875 0.63672 1.0977 0.95312 1.8906 0.95312z"/>
</g>
</g>
<g fill="#fefefe">
<g transform="translate(330.34 111.56)">
<path d="m4.4219-5.6875c0.95703 0.09375 1.6875 0.39062 2.1875 0.89062 0.50781 0.5 0.76562 1.1367 0.76562 1.9062 0 0.5625-0.14062 1.0742-0.42188 1.5312-0.28125 0.44922-0.69922 0.80859-1.25 1.0781-0.55469 0.26172-1.2305 0.39062-2.0312 0.39062-0.69922 0-1.3711-0.10547-2.0156-0.3125-0.64844-0.20703-1.1797-0.5-1.5938-0.875l0.65625-1.1094c0.33203 0.32422 0.75781 0.57812 1.2812 0.76562 0.51953 0.1875 1.0781 0.28125 1.6719 0.28125 0.72656 0 1.2969-0.14844 1.7031-0.45312 0.40625-0.3125 0.60938-0.73828 0.60938-1.2812 0-0.53906-0.20312-0.95703-0.60938-1.25-0.39844-0.30078-1-0.45312-1.8125-0.45312h-0.79688v-0.98438l2.4688-3.0156h-4.7188v-1.2188h6.4688v0.95312z"/>
</g>
</g>
<g fill="#fefefe">
<g transform="translate(338.35 111.56)">
<path d="m4.9062-5.9531c0.63281 0 1.207 0.125 1.7188 0.375 0.50781 0.24219 0.91016 0.58984 1.2031 1.0469 0.28906 0.44922 0.4375 0.96484 0.4375 1.5469 0 0.61719-0.15625 1.1562-0.46875 1.625-0.30469 0.46875-0.71875 0.83594-1.25 1.0938-0.52344 0.25-1.1094 0.375-1.7656 0.375-1.3125 0-2.3281-0.42188-3.0469-1.2656-0.71094-0.85156-1.0625-2.0625-1.0625-3.625 0-1.082 0.19141-2.0078 0.57812-2.7812 0.38281-0.76953 0.92578-1.3516 1.625-1.75 0.69531-0.39453 1.5078-0.59375 2.4375-0.59375 0.46875 0 0.91016 0.046875 1.3281 0.14062 0.42578 0.09375 0.78906 0.23438 1.0938 0.42188l-0.53125 1.0938c-0.46094-0.30078-1.0859-0.45312-1.875-0.45312-1.0117 0-1.8086 0.32031-2.3906 0.95312-0.57422 0.625-0.85938 1.5391-0.85938 2.7344 0 0.15625 0.003906 0.27734 0.015625 0.35938 0.26953-0.42578 0.64844-0.75 1.1406-0.96875 0.48828-0.21875 1.0469-0.32812 1.6719-0.32812zm-0.17188 4.9375c0.64453 0 1.1641-0.17188 1.5625-0.51562 0.40625-0.35156 0.60938-0.81641 0.60938-1.3906 0-0.58203-0.20312-1.0391-0.60938-1.375-0.40625-0.34375-0.95312-0.51562-1.6406-0.51562-0.4375 0-0.82812 0.085938-1.1719 0.25-0.33594 0.16797-0.60156 0.39844-0.79688 0.6875-0.1875 0.29297-0.28125 0.61719-0.28125 0.96875 0 0.34375 0.085938 0.65625 0.26562 0.9375 0.1875 0.28125 0.45312 0.51172 0.79688 0.6875 0.35156 0.17969 0.77344 0.26562 1.2656 0.26562z"/>
</g>
</g>
<g fill="#fefefe">
<g transform="translate(346.98 111.56)">
<path d="m4.6719 0.10938c-0.77344 0-1.4609-0.19531-2.0625-0.59375-0.60547-0.39453-1.0781-0.96875-1.4219-1.7188-0.34375-0.75781-0.51562-1.6602-0.51562-2.7031 0-1.0312 0.17188-1.9219 0.51562-2.6719 0.34375-0.75781 0.81641-1.3359 1.4219-1.7344 0.60156-0.39453 1.2891-0.59375 2.0625-0.59375 0.76953 0 1.4531 0.19922 2.0469 0.59375 0.60156 0.39844 1.0781 0.97656 1.4219 1.7344 0.35156 0.75 0.53125 1.6406 0.53125 2.6719 0 1.043-0.17969 1.9453-0.53125 2.7031-0.34375 0.75-0.82031 1.3242-1.4219 1.7188-0.59375 0.39844-1.2773 0.59375-2.0469 0.59375zm0-1.25c0.78906 0 1.4219-0.31641 1.8906-0.95312 0.46875-0.64453 0.70312-1.582 0.70312-2.8125 0-1.2188-0.23438-2.1484-0.70312-2.7969-0.46875-0.64453-1.1016-0.96875-1.8906-0.96875-0.79297 0-1.4219 0.32422-1.8906 0.96875-0.46875 0.64844-0.70312 1.5781-0.70312 2.7969 0 1.2305 0.23438 2.168 0.70312 2.8125 0.46875 0.63672 1.0977 0.95312 1.8906 0.95312z"/>
</g>
</g>
<g fill="#fefefe">
<g transform="translate(396.5 111.6)">
<path d="m4.4219-5.6875c0.95703 0.09375 1.6875 0.39062 2.1875 0.89062 0.50781 0.5 0.76562 1.1367 0.76562 1.9062 0 0.5625-0.14062 1.0742-0.42188 1.5312-0.28125 0.44922-0.69922 0.80859-1.25 1.0781-0.55469 0.26172-1.2305 0.39062-2.0312 0.39062-0.69922 0-1.3711-0.10547-2.0156-0.3125-0.64844-0.20703-1.1797-0.5-1.5938-0.875l0.65625-1.1094c0.33203 0.32422 0.75781 0.57812 1.2812 0.76562 0.51953 0.1875 1.0781 0.28125 1.6719 0.28125 0.72656 0 1.2969-0.14844 1.7031-0.45312 0.40625-0.3125 0.60938-0.73828 0.60938-1.2812 0-0.53906-0.20312-0.95703-0.60938-1.25-0.39844-0.30078-1-0.45312-1.8125-0.45312h-0.79688v-0.98438l2.4688-3.0156h-4.7188v-1.2188h6.4688v0.95312z"/>
</g>
</g>
<g fill="#fefefe">
<g transform="translate(404.51 111.6)">
<path d="m7.8125-9.7969v0.95312l-3.9688 8.8438h-1.4844l3.8906-8.5781h-4.4844v1.75h-1.3438v-2.9688z"/>
</g>
</g>
<g fill="#fefefe">
<g transform="translate(412.87 111.6)">
<path d="m4.6719 0.10938c-0.77344 0-1.4609-0.19531-2.0625-0.59375-0.60547-0.39453-1.0781-0.96875-1.4219-1.7188-0.34375-0.75781-0.51562-1.6602-0.51562-2.7031 0-1.0312 0.17188-1.9219 0.51562-2.6719 0.34375-0.75781 0.81641-1.3359 1.4219-1.7344 0.60156-0.39453 1.2891-0.59375 2.0625-0.59375 0.76953 0 1.4531 0.19922 2.0469 0.59375 0.60156 0.39844 1.0781 0.97656 1.4219 1.7344 0.35156 0.75 0.53125 1.6406 0.53125 2.6719 0 1.043-0.17969 1.9453-0.53125 2.7031-0.34375 0.75-0.82031 1.3242-1.4219 1.7188-0.59375 0.39844-1.2773 0.59375-2.0469 0.59375zm0-1.25c0.78906 0 1.4219-0.31641 1.8906-0.95312 0.46875-0.64453 0.70312-1.582 0.70312-2.8125 0-1.2188-0.23438-2.1484-0.70312-2.7969-0.46875-0.64453-1.1016-0.96875-1.8906-0.96875-0.79297 0-1.4219 0.32422-1.8906 0.96875-0.46875 0.64844-0.70312 1.5781-0.70312 2.7969 0 1.2305 0.23438 2.168 0.70312 2.8125 0.46875 0.63672 1.0977 0.95312 1.8906 0.95312z"/>
</g>
</g>
<g fill="#fefefe">
<g transform="translate(460.83 111.56)">
<path d="m4.4219-5.6875c0.95703 0.09375 1.6875 0.39062 2.1875 0.89062 0.50781 0.5 0.76562 1.1367 0.76562 1.9062 0 0.5625-0.14062 1.0742-0.42188 1.5312-0.28125 0.44922-0.69922 0.80859-1.25 1.0781-0.55469 0.26172-1.2305 0.39062-2.0312 0.39062-0.69922 0-1.3711-0.10547-2.0156-0.3125-0.64844-0.20703-1.1797-0.5-1.5938-0.875l0.65625-1.1094c0.33203 0.32422 0.75781 0.57812 1.2812 0.76562 0.51953 0.1875 1.0781 0.28125 1.6719 0.28125 0.72656 0 1.2969-0.14844 1.7031-0.45312 0.40625-0.3125 0.60938-0.73828 0.60938-1.2812 0-0.53906-0.20312-0.95703-0.60938-1.25-0.39844-0.30078-1-0.45312-1.8125-0.45312h-0.79688v-0.98438l2.4688-3.0156h-4.7188v-1.2188h6.4688v0.95312z"/>
</g>
</g>
<g fill="#fefefe">
<g transform="translate(468.84 111.56)">
<path d="m6.6562-5.1406c0.5625 0.21875 0.99219 0.53125 1.2969 0.9375 0.30078 0.39844 0.45312 0.875 0.45312 1.4375 0 0.58594-0.16406 1.0938-0.48438 1.5312-0.3125 0.42969-0.76562 0.76172-1.3594 1-0.58594 0.23047-1.2734 0.34375-2.0625 0.34375-0.79297 0-1.4805-0.11328-2.0625-0.34375-0.58594-0.23828-1.0391-0.57031-1.3594-1-0.3125-0.4375-0.46875-0.94531-0.46875-1.5312 0-0.5625 0.14453-1.0391 0.4375-1.4375 0.30078-0.40625 0.73438-0.71875 1.2969-0.9375-0.44922-0.20703-0.79297-0.48828-1.0312-0.84375-0.23047-0.36328-0.34375-0.78516-0.34375-1.2656 0-0.53906 0.14453-1.0078 0.4375-1.4062 0.28906-0.40625 0.70312-0.71094 1.2344-0.92188 0.53125-0.21875 1.1484-0.32812 1.8594-0.32812 0.70703 0 1.3281 0.10938 1.8594 0.32812 0.53906 0.21094 0.95703 0.51562 1.25 0.92188 0.28906 0.39844 0.4375 0.86719 0.4375 1.4062 0 0.48047-0.12109 0.90234-0.35938 1.2656-0.23047 0.35547-0.57422 0.63672-1.0312 0.84375zm-2.1562-3.6406c-0.66797 0-1.1953 0.14844-1.5781 0.4375-0.375 0.28125-0.5625 0.66406-0.5625 1.1406 0 0.49219 0.1875 0.875 0.5625 1.1562s0.89844 0.42188 1.5781 0.42188c0.67578 0 1.207-0.14062 1.5938-0.42188 0.38281-0.28125 0.57812-0.66406 0.57812-1.1562 0-0.47656-0.19922-0.85938-0.59375-1.1406-0.39844-0.28906-0.92188-0.4375-1.5781-0.4375zm0 7.7656c0.76953 0 1.3789-0.16016 1.8281-0.48438 0.44531-0.32031 0.67188-0.75781 0.67188-1.3125 0-0.53906-0.22656-0.96875-0.67188-1.2812-0.44922-0.3125-1.0586-0.46875-1.8281-0.46875-0.78125 0-1.3906 0.15625-1.8281 0.46875s-0.65625 0.74219-0.65625 1.2812c0 0.55469 0.21875 0.99219 0.65625 1.3125 0.4375 0.32422 1.0469 0.48438 1.8281 0.48438z"/>
</g>
</g>
<g fill="#fefefe">
<g transform="translate(477.85 111.56)">
<path d="m4.6719 0.10938c-0.77344 0-1.4609-0.19531-2.0625-0.59375-0.60547-0.39453-1.0781-0.96875-1.4219-1.7188-0.34375-0.75781-0.51562-1.6602-0.51562-2.7031 0-1.0312 0.17188-1.9219 0.51562-2.6719 0.34375-0.75781 0.81641-1.3359 1.4219-1.7344 0.60156-0.39453 1.2891-0.59375 2.0625-0.59375 0.76953 0 1.4531 0.19922 2.0469 0.59375 0.60156 0.39844 1.0781 0.97656 1.4219 1.7344 0.35156 0.75 0.53125 1.6406 0.53125 2.6719 0 1.043-0.17969 1.9453-0.53125 2.7031-0.34375 0.75-0.82031 1.3242-1.4219 1.7188-0.59375 0.39844-1.2773 0.59375-2.0469 0.59375zm0-1.25c0.78906 0 1.4219-0.31641 1.8906-0.95312 0.46875-0.64453 0.70312-1.582 0.70312-2.8125 0-1.2188-0.23438-2.1484-0.70312-2.7969-0.46875-0.64453-1.1016-0.96875-1.8906-0.96875-0.79297 0-1.4219 0.32422-1.8906 0.96875-0.46875 0.64844-0.70312 1.5781-0.70312 2.7969 0 1.2305 0.23438 2.168 0.70312 2.8125 0.46875 0.63672 1.0977 0.95312 1.8906 0.95312z"/>
</g>
</g>
</svg>
