<?xml version="1.0" encoding="UTF-8"?>
<svg version="1.0" viewBox="183.29 171.8 410.1 230.9" xmlns="http://www.w3.org/2000/svg" zoomAndPan="magnify">
<defs>
<clipPath id="b">
<path d="m184.29 172.8h408.71v229.2h-408.71z"/>
</clipPath>
<clipPath id="a">
<path d="m184.29 172.8h408.75v229.5h-408.75z"/>
</clipPath>
</defs>
<g fill="#fefefe">
<g transform="translate(296.82 204.3)">
<path d="m8.6406 0-0.015625-5.0469-2.4688 4.1562h-0.875l-2.4688-4.0469v4.9375h-1.8125v-8.4062h1.6094l3.1406 5.2188 3.0938-5.2188h1.5938l0.03125 8.4062z"/>
</g>
</g>
<g fill="#fefefe">
<g transform="translate(308.28 204.3)">
<path d="m3.4688-6.5469c1 0 1.7656 0.24219 2.2969 0.71875 0.53906 0.46875 0.8125 1.1836 0.8125 2.1406v3.6875h-1.75v-0.79688c-0.35547 0.59375-1.0117 0.89062-1.9688 0.89062-0.5 0-0.93359-0.085938-1.2969-0.25-0.36719-0.16406-0.64844-0.39453-0.84375-0.6875-0.1875-0.30078-0.28125-0.64062-0.28125-1.0156 0-0.60156 0.22266-1.0781 0.67188-1.4219 0.45703-0.34375 1.1602-0.51562 2.1094-0.51562h1.4844c0-0.40625-0.125-0.71875-0.375-0.9375s-0.62109-0.32812-1.1094-0.32812c-0.34375 0-0.68359 0.058594-1.0156 0.17188-0.33594 0.10547-0.61719 0.24609-0.84375 0.42188l-0.67188-1.2969c0.35156-0.25 0.77344-0.44141 1.2656-0.57812 0.48828-0.13281 0.99219-0.20312 1.5156-0.20312zm-0.14062 5.3906c0.3125 0 0.59375-0.070312 0.84375-0.21875 0.25-0.15625 0.42578-0.37891 0.53125-0.67188v-0.65625h-1.2812c-0.77344 0-1.1562 0.25781-1.1562 0.76562 0 0.24219 0.09375 0.43359 0.28125 0.57812 0.1875 0.13672 0.44531 0.20312 0.78125 0.20312z"/>
</g>
</g>
<g fill="#fefefe">
<g transform="translate(315.68 204.3)">
<path d="m0.85938-8.9062h1.875v8.9062h-1.875z"/>
</g>
</g>
<g fill="#fefefe">
<g transform="translate(319.29 204.3)">
<path d="m7.1875-3.2031c0 0.023437-0.011719 0.1875-0.03125 0.5h-4.8906c0.09375 0.40625 0.30078 0.72656 0.625 0.95312 0.33203 0.23047 0.73828 0.34375 1.2188 0.34375 0.34375 0 0.64453-0.046875 0.90625-0.14062 0.25781-0.10156 0.5-0.26562 0.71875-0.48438l1 1.0781c-0.61719 0.69922-1.5078 1.0469-2.6719 1.0469-0.73047 0-1.375-0.14062-1.9375-0.42188-0.55469-0.28125-0.98047-0.67188-1.2812-1.1719-0.30469-0.50781-0.45312-1.0859-0.45312-1.7344 0-0.625 0.14453-1.1914 0.4375-1.7031 0.30078-0.50781 0.71094-0.90625 1.2344-1.1875 0.53125-0.28125 1.1172-0.42188 1.7656-0.42188 0.63281 0 1.207 0.13672 1.7188 0.40625 0.50781 0.27344 0.91016 0.66406 1.2031 1.1719 0.28906 0.5 0.4375 1.0898 0.4375 1.7656zm-3.3438-1.9375c-0.42969 0-0.78906 0.12109-1.0781 0.35938-0.28125 0.24219-0.45312 0.57031-0.51562 0.98438h3.1719c-0.0625-0.40625-0.24219-0.72656-0.53125-0.96875-0.28125-0.25-0.63281-0.375-1.0469-0.375z"/>
</g>
</g>
<g fill="#fefefe">
<g transform="translate(398.84 204.3)">
<path d="m2.9375-6.8438v2.2188h3.8906v1.5625h-3.8906v3.0625h-1.9375v-8.4062h6.3438v1.5625z"/>
</g>
</g>
<g fill="#fefefe">
<g transform="translate(406.51 204.3)">
<path d="m7.1875-3.2031c0 0.023437-0.011719 0.1875-0.03125 0.5h-4.8906c0.09375 0.40625 0.30078 0.72656 0.625 0.95312 0.33203 0.23047 0.73828 0.34375 1.2188 0.34375 0.34375 0 0.64453-0.046875 0.90625-0.14062 0.25781-0.10156 0.5-0.26562 0.71875-0.48438l1 1.0781c-0.61719 0.69922-1.5078 1.0469-2.6719 1.0469-0.73047 0-1.375-0.14062-1.9375-0.42188-0.55469-0.28125-0.98047-0.67188-1.2812-1.1719-0.30469-0.50781-0.45312-1.0859-0.45312-1.7344 0-0.625 0.14453-1.1914 0.4375-1.7031 0.30078-0.50781 0.71094-0.90625 1.2344-1.1875 0.53125-0.28125 1.1172-0.42188 1.7656-0.42188 0.63281 0 1.207 0.13672 1.7188 0.40625 0.50781 0.27344 0.91016 0.66406 1.2031 1.1719 0.28906 0.5 0.4375 1.0898 0.4375 1.7656zm-3.3438-1.9375c-0.42969 0-0.78906 0.12109-1.0781 0.35938-0.28125 0.24219-0.45312 0.57031-0.51562 0.98438h3.1719c-0.0625-0.40625-0.24219-0.72656-0.53125-0.96875-0.28125-0.25-0.63281-0.375-1.0469-0.375z"/>
</g>
</g>
<g fill="#fefefe">
<g transform="translate(414.08 204.3)">
<path d="m9.125-6.5469c0.8125 0 1.4531 0.24219 1.9219 0.71875 0.47656 0.46875 0.71875 1.1797 0.71875 2.125v3.7031h-1.8594v-3.4062c0-0.50781-0.10938-0.89062-0.32812-1.1406-0.21094-0.25781-0.51172-0.39062-0.90625-0.39062-0.4375 0-0.78906 0.14844-1.0469 0.4375-0.25 0.28125-0.375 0.70312-0.375 1.2656v3.2344h-1.875v-3.4062c0-1.0195-0.40625-1.5312-1.2188-1.5312-0.4375 0-0.78906 0.14844-1.0469 0.4375-0.25 0.28125-0.375 0.70312-0.375 1.2656v3.2344h-1.875v-6.4531h1.7969v0.73438c0.23828-0.26953 0.53125-0.47266 0.875-0.60938 0.35156-0.14453 0.73828-0.21875 1.1562-0.21875 0.44531 0 0.85156 0.089844 1.2188 0.26562 0.375 0.17969 0.67188 0.4375 0.89062 0.78125 0.26953-0.33203 0.60156-0.58594 1-0.76562 0.40625-0.1875 0.84766-0.28125 1.3281-0.28125z"/>
</g>
</g>
<g fill="#fefefe">
<g transform="translate(426.67 204.3)">
<path d="m3.4688-6.5469c1 0 1.7656 0.24219 2.2969 0.71875 0.53906 0.46875 0.8125 1.1836 0.8125 2.1406v3.6875h-1.75v-0.79688c-0.35547 0.59375-1.0117 0.89062-1.9688 0.89062-0.5 0-0.93359-0.085938-1.2969-0.25-0.36719-0.16406-0.64844-0.39453-0.84375-0.6875-0.1875-0.30078-0.28125-0.64062-0.28125-1.0156 0-0.60156 0.22266-1.0781 0.67188-1.4219 0.45703-0.34375 1.1602-0.51562 2.1094-0.51562h1.4844c0-0.40625-0.125-0.71875-0.375-0.9375s-0.62109-0.32812-1.1094-0.32812c-0.34375 0-0.68359 0.058594-1.0156 0.17188-0.33594 0.10547-0.61719 0.24609-0.84375 0.42188l-0.67188-1.2969c0.35156-0.25 0.77344-0.44141 1.2656-0.57812 0.48828-0.13281 0.99219-0.20312 1.5156-0.20312zm-0.14062 5.3906c0.3125 0 0.59375-0.070312 0.84375-0.21875 0.25-0.15625 0.42578-0.37891 0.53125-0.67188v-0.65625h-1.2812c-0.77344 0-1.1562 0.25781-1.1562 0.76562 0 0.24219 0.09375 0.43359 0.28125 0.57812 0.1875 0.13672 0.44531 0.20312 0.78125 0.20312z"/>
</g>
</g>
<g fill="#fefefe">
<g transform="translate(434.07 204.3)">
<path d="m0.85938-8.9062h1.875v8.9062h-1.875z"/>
</g>
</g>
<g fill="#fefefe">
<g transform="translate(437.69 204.3)">
<path d="m7.1875-3.2031c0 0.023437-0.011719 0.1875-0.03125 0.5h-4.8906c0.09375 0.40625 0.30078 0.72656 0.625 0.95312 0.33203 0.23047 0.73828 0.34375 1.2188 0.34375 0.34375 0 0.64453-0.046875 0.90625-0.14062 0.25781-0.10156 0.5-0.26562 0.71875-0.48438l1 1.0781c-0.61719 0.69922-1.5078 1.0469-2.6719 1.0469-0.73047 0-1.375-0.14062-1.9375-0.42188-0.55469-0.28125-0.98047-0.67188-1.2812-1.1719-0.30469-0.50781-0.45312-1.0859-0.45312-1.7344 0-0.625 0.14453-1.1914 0.4375-1.7031 0.30078-0.50781 0.71094-0.90625 1.2344-1.1875 0.53125-0.28125 1.1172-0.42188 1.7656-0.42188 0.63281 0 1.207 0.13672 1.7188 0.40625 0.50781 0.27344 0.91016 0.66406 1.2031 1.1719 0.28906 0.5 0.4375 1.0898 0.4375 1.7656zm-3.3438-1.9375c-0.42969 0-0.78906 0.12109-1.0781 0.35938-0.28125 0.24219-0.45312 0.57031-0.51562 0.98438h3.1719c-0.0625-0.40625-0.24219-0.72656-0.53125-0.96875-0.28125-0.25-0.63281-0.375-1.0469-0.375z"/>
</g>
</g>
<g fill="#fefefe">
<g transform="translate(500.87 204.3)">
<path d="m2.7344-6.8125h-2.6875v-1.5938h7.3281v1.5938h-2.6875v6.8125h-1.9531z"/>
</g>
</g>
<g fill="#fefefe">
<g transform="translate(508.28 204.3)">
<path d="m3.9375 0.09375c-0.67969 0-1.2891-0.14062-1.8281-0.42188-0.54297-0.28125-0.96484-0.67188-1.2656-1.1719-0.30469-0.50781-0.45312-1.0859-0.45312-1.7344 0-0.63281 0.14844-1.2031 0.45312-1.7031 0.30078-0.50781 0.72266-0.90625 1.2656-1.1875 0.53906-0.28125 1.1484-0.42188 1.8281-0.42188 0.67578 0 1.2812 0.14062 1.8125 0.42188 0.53906 0.28125 0.96094 0.67969 1.2656 1.1875 0.30078 0.5 0.45312 1.0703 0.45312 1.7031 0 0.64844-0.15234 1.2266-0.45312 1.7344-0.30469 0.5-0.72656 0.89062-1.2656 1.1719-0.53125 0.28125-1.1367 0.42188-1.8125 0.42188zm0-1.5312c0.47656 0 0.86719-0.16016 1.1719-0.48438 0.3125-0.32031 0.46875-0.75781 0.46875-1.3125 0-0.53906-0.15625-0.97266-0.46875-1.2969-0.30469-0.32031-0.69531-0.48438-1.1719-0.48438-0.48047 0-0.875 0.16406-1.1875 0.48438-0.3125 0.32422-0.46875 0.75781-0.46875 1.2969 0 0.55469 0.15625 0.99219 0.46875 1.3125 0.3125 0.32422 0.70703 0.48438 1.1875 0.48438z"/>
</g>
</g>
<g fill="#fefefe">
<g transform="translate(516.14 204.3)">
<path d="m5.0312-0.3125c-0.1875 0.13672-0.41797 0.24219-0.6875 0.3125-0.26172 0.0625-0.54297 0.09375-0.84375 0.09375-0.76172 0-1.3555-0.19141-1.7812-0.57812-0.41797-0.39453-0.625-0.97266-0.625-1.7344v-2.6562h-1v-1.4375h1v-1.5781h1.875v1.5781h1.6094v1.4375h-1.6094v2.625c0 0.27344 0.066406 0.48438 0.20312 0.64062 0.14453 0.14844 0.34375 0.21875 0.59375 0.21875 0.30078 0 0.55469-0.078125 0.76562-0.23438z"/>
</g>
</g>
<g fill="#fefefe">
<g transform="translate(521.36 204.3)">
<path d="m3.4688-6.5469c1 0 1.7656 0.24219 2.2969 0.71875 0.53906 0.46875 0.8125 1.1836 0.8125 2.1406v3.6875h-1.75v-0.79688c-0.35547 0.59375-1.0117 0.89062-1.9688 0.89062-0.5 0-0.93359-0.085938-1.2969-0.25-0.36719-0.16406-0.64844-0.39453-0.84375-0.6875-0.1875-0.30078-0.28125-0.64062-0.28125-1.0156 0-0.60156 0.22266-1.0781 0.67188-1.4219 0.45703-0.34375 1.1602-0.51562 2.1094-0.51562h1.4844c0-0.40625-0.125-0.71875-0.375-0.9375s-0.62109-0.32812-1.1094-0.32812c-0.34375 0-0.68359 0.058594-1.0156 0.17188-0.33594 0.10547-0.61719 0.24609-0.84375 0.42188l-0.67188-1.2969c0.35156-0.25 0.77344-0.44141 1.2656-0.57812 0.48828-0.13281 0.99219-0.20312 1.5156-0.20312zm-0.14062 5.3906c0.3125 0 0.59375-0.070312 0.84375-0.21875 0.25-0.15625 0.42578-0.37891 0.53125-0.67188v-0.65625h-1.2812c-0.77344 0-1.1562 0.25781-1.1562 0.76562 0 0.24219 0.09375 0.43359 0.28125 0.57812 0.1875 0.13672 0.44531 0.20312 0.78125 0.20312z"/>
</g>
</g>
<g fill="#fefefe">
<g transform="translate(528.77 204.3)">
<path d="m0.85938-8.9062h1.875v8.9062h-1.875z"/>
</g>
</g>
<g fill="#fefefe">
<g transform="translate(194.04 261.52)">
<path d="m5.0312-2.9688v2.9688h-1.9531v-3l-3.25-5.4062h2.0625l2.25 3.7344 2.25-3.7344h1.9062z"/>
</g>
</g>
<g fill="#fefefe">
<g transform="translate(202.15 261.52)">
<path d="m7.1875-3.2031c0 0.023437-0.011719 0.1875-0.03125 0.5h-4.8906c0.09375 0.40625 0.30078 0.72656 0.625 0.95312 0.33203 0.23047 0.73828 0.34375 1.2188 0.34375 0.34375 0 0.64453-0.046875 0.90625-0.14062 0.25781-0.10156 0.5-0.26562 0.71875-0.48438l1 1.0781c-0.61719 0.69922-1.5078 1.0469-2.6719 1.0469-0.73047 0-1.375-0.14062-1.9375-0.42188-0.55469-0.28125-0.98047-0.67188-1.2812-1.1719-0.30469-0.50781-0.45312-1.0859-0.45312-1.7344 0-0.625 0.14453-1.1914 0.4375-1.7031 0.30078-0.50781 0.71094-0.90625 1.2344-1.1875 0.53125-0.28125 1.1172-0.42188 1.7656-0.42188 0.63281 0 1.207 0.13672 1.7188 0.40625 0.50781 0.27344 0.91016 0.66406 1.2031 1.1719 0.28906 0.5 0.4375 1.0898 0.4375 1.7656zm-3.3438-1.9375c-0.42969 0-0.78906 0.12109-1.0781 0.35938-0.28125 0.24219-0.45312 0.57031-0.51562 0.98438h3.1719c-0.0625-0.40625-0.24219-0.72656-0.53125-0.96875-0.28125-0.25-0.63281-0.375-1.0469-0.375z"/>
</g>
</g>
<g fill="#fefefe">
<g transform="translate(209.73 261.52)">
<path d="m3.0312 0.09375c-0.53125 0-1.0547-0.0625-1.5625-0.1875-0.51172-0.13281-0.92188-0.30078-1.2344-0.5l0.625-1.3438c0.28906 0.17969 0.64062 0.32812 1.0469 0.45312 0.40625 0.11719 0.80469 0.17188 1.2031 0.17188 0.78906 0 1.1875-0.19531 1.1875-0.59375 0-0.1875-0.10938-0.31641-0.32812-0.39062-0.21875-0.082031-0.55469-0.15625-1-0.21875-0.52344-0.070313-0.95312-0.16016-1.2969-0.26562-0.34375-0.10156-0.64844-0.28516-0.90625-0.54688-0.25-0.26953-0.375-0.64844-0.375-1.1406 0-0.40625 0.11719-0.76562 0.35938-1.0781 0.23828-0.32031 0.58203-0.56641 1.0312-0.73438 0.44531-0.17578 0.98438-0.26562 1.6094-0.26562 0.44531 0 0.89453 0.054687 1.3438 0.15625 0.45703 0.09375 0.83594 0.23047 1.1406 0.40625l-0.625 1.3281c-0.57422-0.32031-1.1953-0.48438-1.8594-0.48438-0.40625 0-0.71094 0.058594-0.90625 0.17188-0.19922 0.11719-0.29688 0.26172-0.29688 0.4375 0 0.19922 0.10156 0.33984 0.3125 0.42188 0.21875 0.074219 0.56641 0.14844 1.0469 0.21875 0.51953 0.09375 0.94531 0.19531 1.2812 0.29688 0.34375 0.09375 0.63281 0.27734 0.875 0.54688 0.25 0.26172 0.375 0.625 0.375 1.0938 0 0.39844-0.12109 0.75-0.35938 1.0625-0.24219 0.3125-0.58984 0.55859-1.0469 0.73438-0.46094 0.16406-1.0078 0.25-1.6406 0.25z"/>
</g>
</g>
<g fill="#fefefe">
<g transform="translate(296.82 261.52)">
<path d="m5.4375-4.4062c0.53125 0.17969 0.9375 0.44531 1.2188 0.79688 0.28125 0.35547 0.42188 0.77734 0.42188 1.2656 0 0.49219-0.13672 0.91797-0.40625 1.2812-0.26172 0.36719-0.63672 0.64844-1.125 0.84375-0.49219 0.19922-1.0703 0.29688-1.7344 0.29688-1.0117 0-1.8047-0.21094-2.375-0.64062-0.57422-0.4375-0.85938-1.0312-0.85938-1.7812 0-0.5 0.13281-0.92188 0.40625-1.2656 0.28125-0.35156 0.6875-0.61719 1.2188-0.79688-0.4375-0.16406-0.77344-0.40625-1-0.71875-0.21875-0.32031-0.32812-0.69531-0.32812-1.125 0-0.67578 0.26562-1.2109 0.79688-1.6094 0.53125-0.40625 1.2422-0.60938 2.1406-0.60938 0.59375 0 1.1094 0.089844 1.5469 0.26562 0.44531 0.17969 0.79688 0.4375 1.0469 0.78125 0.25 0.33594 0.375 0.72656 0.375 1.1719 0 0.42969-0.12109 0.80469-0.35938 1.125-0.23047 0.3125-0.55859 0.55469-0.98438 0.71875zm-3.7031-1.8281c0 0.46875 0.17969 0.83984 0.54688 1.1094 0.375 0.27344 0.88281 0.40625 1.5312 0.40625 0.64453 0 1.1562-0.13281 1.5312-0.40625 0.375-0.26953 0.5625-0.63281 0.5625-1.0938 0-0.46875-0.19531-0.83594-0.57812-1.1094-0.375-0.26953-0.88281-0.40625-1.5156-0.40625-0.63672 0-1.1406 0.13672-1.5156 0.40625-0.375 0.27344-0.5625 0.63672-0.5625 1.0938zm2.0781 5.5781c0.75 0 1.332-0.14844 1.75-0.45312 0.41406-0.3125 0.625-0.72656 0.625-1.25 0-0.50781-0.21094-0.91406-0.625-1.2188-0.41797-0.30078-1-0.45312-1.75-0.45312-0.73047 0-1.3086 0.15234-1.7344 0.45312-0.41797 0.30469-0.625 0.71094-0.625 1.2188 0 0.53125 0.20703 0.94922 0.625 1.25 0.41406 0.30469 0.99219 0.45312 1.7344 0.45312z"/>
</g>
</g>
<g fill="#fefefe">
<g transform="translate(304.47 261.52)">
<path d="m5.4375-4.4062c0.53125 0.17969 0.9375 0.44531 1.2188 0.79688 0.28125 0.35547 0.42188 0.77734 0.42188 1.2656 0 0.49219-0.13672 0.91797-0.40625 1.2812-0.26172 0.36719-0.63672 0.64844-1.125 0.84375-0.49219 0.19922-1.0703 0.29688-1.7344 0.29688-1.0117 0-1.8047-0.21094-2.375-0.64062-0.57422-0.4375-0.85938-1.0312-0.85938-1.7812 0-0.5 0.13281-0.92188 0.40625-1.2656 0.28125-0.35156 0.6875-0.61719 1.2188-0.79688-0.4375-0.16406-0.77344-0.40625-1-0.71875-0.21875-0.32031-0.32812-0.69531-0.32812-1.125 0-0.67578 0.26562-1.2109 0.79688-1.6094 0.53125-0.40625 1.2422-0.60938 2.1406-0.60938 0.59375 0 1.1094 0.089844 1.5469 0.26562 0.44531 0.17969 0.79688 0.4375 1.0469 0.78125 0.25 0.33594 0.375 0.72656 0.375 1.1719 0 0.42969-0.12109 0.80469-0.35938 1.125-0.23047 0.3125-0.55859 0.55469-0.98438 0.71875zm-3.7031-1.8281c0 0.46875 0.17969 0.83984 0.54688 1.1094 0.375 0.27344 0.88281 0.40625 1.5312 0.40625 0.64453 0 1.1562-0.13281 1.5312-0.40625 0.375-0.26953 0.5625-0.63281 0.5625-1.0938 0-0.46875-0.19531-0.83594-0.57812-1.1094-0.375-0.26953-0.88281-0.40625-1.5156-0.40625-0.63672 0-1.1406 0.13672-1.5156 0.40625-0.375 0.27344-0.5625 0.63672-0.5625 1.0938zm2.0781 5.5781c0.75 0 1.332-0.14844 1.75-0.45312 0.41406-0.3125 0.625-0.72656 0.625-1.25 0-0.50781-0.21094-0.91406-0.625-1.2188-0.41797-0.30078-1-0.45312-1.75-0.45312-0.73047 0-1.3086 0.15234-1.7344 0.45312-0.41797 0.30469-0.625 0.71094-0.625 1.2188 0 0.53125 0.20703 0.94922 0.625 1.25 0.41406 0.30469 0.99219 0.45312 1.7344 0.45312z"/>
</g>
</g>
<g fill="#fefefe">
<g transform="translate(312.13 261.52)">
<path d="m7.7656-2.2031h-1.6875v2.2031h-0.85938v-2.2031h-4.7344v-0.625l4.4531-5.5781h0.95312l-4.2969 5.4375h3.6562v-1.9531h0.82812v1.9531h1.6875z"/>
</g>
</g>
<g fill="#fefefe">
<g transform="translate(398.84 261.52)">
<path d="m6.5469-8.4062v0.625l-3.5156 7.7812h-0.9375l3.4688-7.625h-4.3281v1.5625h-0.84375v-2.3438z"/>
</g>
</g>
<g fill="#fefefe">
<g transform="translate(405.91 261.52)">
<path d="m6.5469-8.4062v0.625l-3.5156 7.7812h-0.9375l3.4688-7.625h-4.3281v1.5625h-0.84375v-2.3438z"/>
</g>
</g>
<g fill="#fefefe">
<g transform="translate(412.98 261.52)">
<path d="m7.7656-2.2031h-1.6875v2.2031h-0.85938v-2.2031h-4.7344v-0.625l4.4531-5.5781h0.95312l-4.2969 5.4375h3.6562v-1.9531h0.82812v1.9531h1.6875z"/>
</g>
</g>
<g fill="#fefefe">
<g transform="translate(500.87 261.52)">
<path d="m2.9531-8.4062v8.4062h-0.85938v-7.625h-1.9844v-0.78125z"/>
</g>
</g>
<g fill="#fefefe">
<g transform="translate(505.2 261.52)">
<path d="m4.1094-5.0312c0.55078 0 1.0391 0.10547 1.4688 0.3125 0.42578 0.21094 0.75781 0.50781 1 0.89062 0.23828 0.375 0.35938 0.8125 0.35938 1.3125 0 0.52344-0.125 0.98047-0.375 1.375-0.25 0.38672-0.59375 0.6875-1.0312 0.90625-0.42969 0.21094-0.91797 0.3125-1.4688 0.3125-1.1055 0-1.9531-0.36328-2.5469-1.0938-0.59375-0.73828-0.89062-1.7734-0.89062-3.1094 0-0.9375 0.15625-1.7266 0.46875-2.375 0.32031-0.64453 0.76953-1.1328 1.3438-1.4688 0.58203-0.33203 1.2578-0.5 2.0312-0.5 0.83203 0 1.4922 0.15234 1.9844 0.45312l-0.34375 0.70312c-0.39844-0.26953-0.94531-0.40625-1.6406-0.40625-0.92969 0-1.6562 0.29688-2.1875 0.89062-0.52344 0.58594-0.78125 1.4375-0.78125 2.5625 0 0.19922 0.007812 0.42188 0.03125 0.67188 0.20703-0.44531 0.53906-0.79688 1-1.0469 0.45703-0.25781 0.98438-0.39062 1.5781-0.39062zm-0.078125 4.375c0.60156 0 1.0938-0.16406 1.4688-0.5 0.38281-0.33203 0.57812-0.77344 0.57812-1.3281 0-0.55078-0.19531-0.98828-0.57812-1.3125-0.375-0.33203-0.88672-0.5-1.5312-0.5-0.41797 0-0.79297 0.085937-1.125 0.25-0.32422 0.15625-0.57812 0.375-0.76562 0.65625-0.17969 0.28125-0.26562 0.59375-0.26562 0.9375 0 0.3125 0.082031 0.60938 0.25 0.89062 0.17578 0.27344 0.42969 0.49219 0.76562 0.65625 0.34375 0.16797 0.74219 0.25 1.2031 0.25z"/>
</g>
</g>
<g fill="#fefefe">
<g transform="translate(512.51 261.52)">
<path d="m2.8281-4.9531c1.2188 0 2.1016 0.21875 2.6562 0.65625 0.5625 0.4375 0.84375 1.0469 0.84375 1.8281 0 0.49219-0.11719 0.92969-0.34375 1.3125-0.23047 0.375-0.57422 0.67969-1.0312 0.90625-0.46094 0.21875-1.0156 0.32812-1.6719 0.32812-0.60547 0-1.1797-0.097656-1.7188-0.29688-0.54297-0.19531-0.97656-0.46094-1.2969-0.79688l0.42188-0.67188c0.28125 0.28125 0.64453 0.51562 1.0938 0.70312 0.45703 0.17969 0.95312 0.26562 1.4844 0.26562 0.69531 0 1.2344-0.15625 1.6094-0.46875 0.38281-0.3125 0.57812-0.72656 0.57812-1.25 0-0.57031-0.21875-1.0039-0.65625-1.2969-0.42969-0.30078-1.1484-0.45312-2.1562-0.45312h-1.7812l0.42188-4.2188h4.5938v0.78125h-3.8281l-0.29688 2.6719z"/>
</g>
</g>
<g fill="#fefefe">
<g transform="translate(519.3 261.52)">
<path d="m5.4375-4.4062c0.53125 0.17969 0.9375 0.44531 1.2188 0.79688 0.28125 0.35547 0.42188 0.77734 0.42188 1.2656 0 0.49219-0.13672 0.91797-0.40625 1.2812-0.26172 0.36719-0.63672 0.64844-1.125 0.84375-0.49219 0.19922-1.0703 0.29688-1.7344 0.29688-1.0117 0-1.8047-0.21094-2.375-0.64062-0.57422-0.4375-0.85938-1.0312-0.85938-1.7812 0-0.5 0.13281-0.92188 0.40625-1.2656 0.28125-0.35156 0.6875-0.61719 1.2188-0.79688-0.4375-0.16406-0.77344-0.40625-1-0.71875-0.21875-0.32031-0.32812-0.69531-0.32812-1.125 0-0.67578 0.26562-1.2109 0.79688-1.6094 0.53125-0.40625 1.2422-0.60938 2.1406-0.60938 0.59375 0 1.1094 0.089844 1.5469 0.26562 0.44531 0.17969 0.79688 0.4375 1.0469 0.78125 0.25 0.33594 0.375 0.72656 0.375 1.1719 0 0.42969-0.12109 0.80469-0.35938 1.125-0.23047 0.3125-0.55859 0.55469-0.98438 0.71875zm-3.7031-1.8281c0 0.46875 0.17969 0.83984 0.54688 1.1094 0.375 0.27344 0.88281 0.40625 1.5312 0.40625 0.64453 0 1.1562-0.13281 1.5312-0.40625 0.375-0.26953 0.5625-0.63281 0.5625-1.0938 0-0.46875-0.19531-0.83594-0.57812-1.1094-0.375-0.26953-0.88281-0.40625-1.5156-0.40625-0.63672 0-1.1406 0.13672-1.5156 0.40625-0.375 0.27344-0.5625 0.63672-0.5625 1.0938zm2.0781 5.5781c0.75 0 1.332-0.14844 1.75-0.45312 0.41406-0.3125 0.625-0.72656 0.625-1.25 0-0.50781-0.21094-0.91406-0.625-1.2188-0.41797-0.30078-1-0.45312-1.75-0.45312-0.73047 0-1.3086 0.15234-1.7344 0.45312-0.41797 0.30469-0.625 0.71094-0.625 1.2188 0 0.53125 0.20703 0.94922 0.625 1.25 0.41406 0.30469 0.99219 0.45312 1.7344 0.45312z"/>
</g>
</g>
<g fill="#fefefe">
<g transform="translate(194.04 318.75)">
<path d="m8.7031-8.4062v8.4062h-1.5938l-4.1875-5.0938v5.0938h-1.9219v-8.4062h1.6094l4.1719 5.1094v-5.1094z"/>
</g>
</g>
<g fill="#fefefe">
<g transform="translate(203.74 318.75)">
<path d="m3.9375 0.09375c-0.67969 0-1.2891-0.14062-1.8281-0.42188-0.54297-0.28125-0.96484-0.67188-1.2656-1.1719-0.30469-0.50781-0.45312-1.0859-0.45312-1.7344 0-0.63281 0.14844-1.2031 0.45312-1.7031 0.30078-0.50781 0.72266-0.90625 1.2656-1.1875 0.53906-0.28125 1.1484-0.42188 1.8281-0.42188 0.67578 0 1.2812 0.14062 1.8125 0.42188 0.53906 0.28125 0.96094 0.67969 1.2656 1.1875 0.30078 0.5 0.45312 1.0703 0.45312 1.7031 0 0.64844-0.15234 1.2266-0.45312 1.7344-0.30469 0.5-0.72656 0.89062-1.2656 1.1719-0.53125 0.28125-1.1367 0.42188-1.8125 0.42188zm0-1.5312c0.47656 0 0.86719-0.16016 1.1719-0.48438 0.3125-0.32031 0.46875-0.75781 0.46875-1.3125 0-0.53906-0.15625-0.97266-0.46875-1.2969-0.30469-0.32031-0.69531-0.48438-1.1719-0.48438-0.48047 0-0.875 0.16406-1.1875 0.48438-0.3125 0.32422-0.46875 0.75781-0.46875 1.2969 0 0.55469 0.15625 0.99219 0.46875 1.3125 0.3125 0.32422 0.70703 0.48438 1.1875 0.48438z"/>
</g>
</g>
<g fill="#fefefe">
<g transform="translate(296.82 318.75)">
<path d="m2.9531-8.4062v8.4062h-0.85938v-7.625h-1.9844v-0.78125z"/>
</g>
</g>
<g fill="#fefefe">
<g transform="translate(301.15 318.75)">
<path d="m6.3594-0.76562v0.76562h-5.8906v-0.60938l3.4844-3.4219c0.44531-0.4375 0.75-0.8125 0.90625-1.125s0.23438-0.62891 0.23438-0.95312c0-0.5-0.17188-0.88281-0.51562-1.1562-0.34375-0.28125-0.82812-0.42188-1.4531-0.42188-0.99219 0-1.7578 0.3125-2.2969 0.9375l-0.60938-0.51562c0.32031-0.38281 0.73828-0.67969 1.25-0.89062 0.50781-0.20703 1.082-0.3125 1.7188-0.3125 0.85156 0 1.5312 0.20312 2.0312 0.60938 0.5 0.39844 0.75 0.94922 0.75 1.6562 0 0.42969-0.09375 0.84375-0.28125 1.25-0.1875 0.39844-0.55469 0.85547-1.0938 1.375l-2.8594 2.8125z"/>
</g>
</g>
<g fill="#fefefe">
<g transform="translate(307.96 318.75)">
<path d="m2.9531-8.4062v8.4062h-0.85938v-7.625h-1.9844v-0.78125z"/>
</g>
</g>
<g fill="#fefefe">
<g transform="translate(398.84 318.75)">
<path d="m6.3594-0.76562v0.76562h-5.8906v-0.60938l3.4844-3.4219c0.44531-0.4375 0.75-0.8125 0.90625-1.125s0.23438-0.62891 0.23438-0.95312c0-0.5-0.17188-0.88281-0.51562-1.1562-0.34375-0.28125-0.82812-0.42188-1.4531-0.42188-0.99219 0-1.7578 0.3125-2.2969 0.9375l-0.60938-0.51562c0.32031-0.38281 0.73828-0.67969 1.25-0.89062 0.50781-0.20703 1.082-0.3125 1.7188-0.3125 0.85156 0 1.5312 0.20312 2.0312 0.60938 0.5 0.39844 0.75 0.94922 0.75 1.6562 0 0.42969-0.09375 0.84375-0.28125 1.25-0.1875 0.39844-0.55469 0.85547-1.0938 1.375l-2.8594 2.8125z"/>
</g>
</g>
<g fill="#fefefe">
<g transform="translate(405.66 318.75)">
<path d="m6.3594-0.76562v0.76562h-5.8906v-0.60938l3.4844-3.4219c0.44531-0.4375 0.75-0.8125 0.90625-1.125s0.23438-0.62891 0.23438-0.95312c0-0.5-0.17188-0.88281-0.51562-1.1562-0.34375-0.28125-0.82812-0.42188-1.4531-0.42188-0.99219 0-1.7578 0.3125-2.2969 0.9375l-0.60938-0.51562c0.32031-0.38281 0.73828-0.67969 1.25-0.89062 0.50781-0.20703 1.082-0.3125 1.7188-0.3125 0.85156 0 1.5312 0.20312 2.0312 0.60938 0.5 0.39844 0.75 0.94922 0.75 1.6562 0 0.42969-0.09375 0.84375-0.28125 1.25-0.1875 0.39844-0.55469 0.85547-1.0938 1.375l-2.8594 2.8125z"/>
</g>
</g>
<g fill="#fefefe">
<g transform="translate(412.47 318.75)">
<path d="m5.4375-4.4062c0.53125 0.17969 0.9375 0.44531 1.2188 0.79688 0.28125 0.35547 0.42188 0.77734 0.42188 1.2656 0 0.49219-0.13672 0.91797-0.40625 1.2812-0.26172 0.36719-0.63672 0.64844-1.125 0.84375-0.49219 0.19922-1.0703 0.29688-1.7344 0.29688-1.0117 0-1.8047-0.21094-2.375-0.64062-0.57422-0.4375-0.85938-1.0312-0.85938-1.7812 0-0.5 0.13281-0.92188 0.40625-1.2656 0.28125-0.35156 0.6875-0.61719 1.2188-0.79688-0.4375-0.16406-0.77344-0.40625-1-0.71875-0.21875-0.32031-0.32812-0.69531-0.32812-1.125 0-0.67578 0.26562-1.2109 0.79688-1.6094 0.53125-0.40625 1.2422-0.60938 2.1406-0.60938 0.59375 0 1.1094 0.089844 1.5469 0.26562 0.44531 0.17969 0.79688 0.4375 1.0469 0.78125 0.25 0.33594 0.375 0.72656 0.375 1.1719 0 0.42969-0.12109 0.80469-0.35938 1.125-0.23047 0.3125-0.55859 0.55469-0.98438 0.71875zm-3.7031-1.8281c0 0.46875 0.17969 0.83984 0.54688 1.1094 0.375 0.27344 0.88281 0.40625 1.5312 0.40625 0.64453 0 1.1562-0.13281 1.5312-0.40625 0.375-0.26953 0.5625-0.63281 0.5625-1.0938 0-0.46875-0.19531-0.83594-0.57812-1.1094-0.375-0.26953-0.88281-0.40625-1.5156-0.40625-0.63672 0-1.1406 0.13672-1.5156 0.40625-0.375 0.27344-0.5625 0.63672-0.5625 1.0938zm2.0781 5.5781c0.75 0 1.332-0.14844 1.75-0.45312 0.41406-0.3125 0.625-0.72656 0.625-1.25 0-0.50781-0.21094-0.91406-0.625-1.2188-0.41797-0.30078-1-0.45312-1.75-0.45312-0.73047 0-1.3086 0.15234-1.7344 0.45312-0.41797 0.30469-0.625 0.71094-0.625 1.2188 0 0.53125 0.20703 0.94922 0.625 1.25 0.41406 0.30469 0.99219 0.45312 1.7344 0.45312z"/>
</g>
</g>
<g fill="#fefefe">
<g transform="translate(500.87 318.75)">
<path d="m3.4844-4.7969c0.875 0.042969 1.5391 0.28125 2 0.71875 0.46875 0.42969 0.70312 0.98438 0.70312 1.6719 0 0.48047-0.12109 0.90625-0.35938 1.2812-0.23047 0.36719-0.57422 0.65625-1.0312 0.875-0.46094 0.21875-1.0156 0.32812-1.6719 0.32812-0.60547 0-1.1797-0.097656-1.7188-0.29688-0.54297-0.19531-0.97656-0.46094-1.2969-0.79688l0.42188-0.67188c0.28125 0.28125 0.64844 0.51562 1.1094 0.70312 0.46875 0.17969 0.96094 0.26562 1.4844 0.26562 0.6875 0 1.2188-0.14844 1.5938-0.45312 0.38281-0.30078 0.57812-0.71094 0.57812-1.2344 0-0.51953-0.19531-0.92578-0.57812-1.2188-0.375-0.30078-0.9375-0.45312-1.6875-0.45312h-0.60938v-0.64062l2.3281-2.9062h-4.2969v-0.78125h5.4062v0.625z"/>
</g>
</g>
<g fill="#fefefe">
<g transform="translate(507.63 318.75)">
<path d="m7.7656-2.2031h-1.6875v2.2031h-0.85938v-2.2031h-4.7344v-0.625l4.4531-5.5781h0.95312l-4.2969 5.4375h3.6562v-1.9531h0.82812v1.9531h1.6875z"/>
</g>
</g>
<g fill="#fefefe">
<g transform="translate(515.57 318.75)">
<path d="m3.2344-8.4688c1.1133 0 1.9688 0.36719 2.5625 1.0938 0.59375 0.73047 0.89062 1.7656 0.89062 3.1094 0 0.92969-0.16406 1.7188-0.48438 2.375-0.32422 0.64844-0.77344 1.1367-1.3438 1.4688-0.57422 0.33594-1.2461 0.5-2.0156 0.5-0.83594 0-1.4961-0.15625-1.9844-0.46875l0.34375-0.6875c0.39453 0.26172 0.9375 0.39062 1.625 0.39062 0.92578 0 1.6562-0.28906 2.1875-0.875 0.53125-0.59375 0.79688-1.4453 0.79688-2.5625 0-0.20703-0.015625-0.4375-0.046875-0.6875-0.21094 0.46094-0.54297 0.8125-1 1.0625-0.44922 0.25-0.96875 0.375-1.5625 0.375-0.55469 0-1.043-0.10156-1.4688-0.3125-0.42969-0.20703-0.76172-0.5-1-0.875-0.24219-0.38281-0.35938-0.82812-0.35938-1.3281 0-0.50781 0.11719-0.96094 0.35938-1.3594 0.25-0.39453 0.59375-0.69531 1.0312-0.90625 0.4375-0.20703 0.92578-0.3125 1.4688-0.3125zm0.10938 4.3594c0.41406 0 0.78516-0.078125 1.1094-0.23438 0.32031-0.15625 0.57812-0.375 0.76562-0.65625s0.28125-0.59375 0.28125-0.9375c0-0.32031-0.089844-0.61719-0.26562-0.89062-0.16797-0.26953-0.42188-0.48828-0.76562-0.65625-0.33594-0.16406-0.73047-0.25-1.1875-0.25-0.61719 0-1.1172 0.16797-1.5 0.5-0.375 0.32422-0.5625 0.76172-0.5625 1.3125 0 0.55469 0.1875 0.99609 0.5625 1.3281 0.38281 0.32422 0.90625 0.48438 1.5625 0.48438z"/>
</g>
</g>
<g fill="#fefefe">
<g transform="translate(194.04 376.73)">
<path d="m2.7344-6.8125h-2.6875v-1.5938h7.3281v1.5938h-2.6875v6.8125h-1.9531z"/>
</g>
</g>
<g fill="#fefefe">
<g transform="translate(201.46 376.73)">
<path d="m3.9375 0.09375c-0.67969 0-1.2891-0.14062-1.8281-0.42188-0.54297-0.28125-0.96484-0.67188-1.2656-1.1719-0.30469-0.50781-0.45312-1.0859-0.45312-1.7344 0-0.63281 0.14844-1.2031 0.45312-1.7031 0.30078-0.50781 0.72266-0.90625 1.2656-1.1875 0.53906-0.28125 1.1484-0.42188 1.8281-0.42188 0.67578 0 1.2812 0.14062 1.8125 0.42188 0.53906 0.28125 0.96094 0.67969 1.2656 1.1875 0.30078 0.5 0.45312 1.0703 0.45312 1.7031 0 0.64844-0.15234 1.2266-0.45312 1.7344-0.30469 0.5-0.72656 0.89062-1.2656 1.1719-0.53125 0.28125-1.1367 0.42188-1.8125 0.42188zm0-1.5312c0.47656 0 0.86719-0.16016 1.1719-0.48438 0.3125-0.32031 0.46875-0.75781 0.46875-1.3125 0-0.53906-0.15625-0.97266-0.46875-1.2969-0.30469-0.32031-0.69531-0.48438-1.1719-0.48438-0.48047 0-0.875 0.16406-1.1875 0.48438-0.3125 0.32422-0.46875 0.75781-0.46875 1.2969 0 0.55469 0.15625 0.99219 0.46875 1.3125 0.3125 0.32422 0.70703 0.48438 1.1875 0.48438z"/>
</g>
</g>
<g fill="#fefefe">
<g transform="translate(209.32 376.73)">
<path d="m5.0312-0.3125c-0.1875 0.13672-0.41797 0.24219-0.6875 0.3125-0.26172 0.0625-0.54297 0.09375-0.84375 0.09375-0.76172 0-1.3555-0.19141-1.7812-0.57812-0.41797-0.39453-0.625-0.97266-0.625-1.7344v-2.6562h-1v-1.4375h1v-1.5781h1.875v1.5781h1.6094v1.4375h-1.6094v2.625c0 0.27344 0.066406 0.48438 0.20312 0.64062 0.14453 0.14844 0.34375 0.21875 0.59375 0.21875 0.30078 0 0.55469-0.078125 0.76562-0.23438z"/>
</g>
</g>
<g fill="#fefefe">
<g transform="translate(214.54 376.73)">
<path d="m3.4688-6.5469c1 0 1.7656 0.24219 2.2969 0.71875 0.53906 0.46875 0.8125 1.1836 0.8125 2.1406v3.6875h-1.75v-0.79688c-0.35547 0.59375-1.0117 0.89062-1.9688 0.89062-0.5 0-0.93359-0.085938-1.2969-0.25-0.36719-0.16406-0.64844-0.39453-0.84375-0.6875-0.1875-0.30078-0.28125-0.64062-0.28125-1.0156 0-0.60156 0.22266-1.0781 0.67188-1.4219 0.45703-0.34375 1.1602-0.51562 2.1094-0.51562h1.4844c0-0.40625-0.125-0.71875-0.375-0.9375s-0.62109-0.32812-1.1094-0.32812c-0.34375 0-0.68359 0.058594-1.0156 0.17188-0.33594 0.10547-0.61719 0.24609-0.84375 0.42188l-0.67188-1.2969c0.35156-0.25 0.77344-0.44141 1.2656-0.57812 0.48828-0.13281 0.99219-0.20312 1.5156-0.20312zm-0.14062 5.3906c0.3125 0 0.59375-0.070312 0.84375-0.21875 0.25-0.15625 0.42578-0.37891 0.53125-0.67188v-0.65625h-1.2812c-0.77344 0-1.1562 0.25781-1.1562 0.76562 0 0.24219 0.09375 0.43359 0.28125 0.57812 0.1875 0.13672 0.44531 0.20312 0.78125 0.20312z"/>
</g>
</g>
<g fill="#fefefe">
<g transform="translate(221.94 376.73)">
<path d="m0.85938-8.9062h1.875v8.9062h-1.875z"/>
</g>
</g>
<g fill="#fefefe">
<g transform="translate(296.82 376.73)">
<path d="m2.9531-8.4062v8.4062h-0.85938v-7.625h-1.9844v-0.78125z"/>
</g>
</g>
<g fill="#fefefe">
<g transform="translate(301.15 376.73)">
<path d="m3.9688 0.078125c-0.64844 0-1.2266-0.17188-1.7344-0.51562-0.51172-0.34375-0.90625-0.83594-1.1875-1.4844-0.28125-0.64453-0.42188-1.4062-0.42188-2.2812s0.14062-1.6289 0.42188-2.2656c0.28125-0.64453 0.67578-1.1406 1.1875-1.4844 0.50781-0.34375 1.0859-0.51562 1.7344-0.51562 0.64453 0 1.2227 0.17188 1.7344 0.51562 0.50781 0.34375 0.90625 0.83984 1.1875 1.4844 0.28906 0.63672 0.4375 1.3906 0.4375 2.2656s-0.14844 1.6367-0.4375 2.2812c-0.28125 0.64844-0.67969 1.1406-1.1875 1.4844-0.51172 0.34375-1.0898 0.51562-1.7344 0.51562zm0-0.79688c0.48828 0 0.91406-0.13281 1.2812-0.40625 0.375-0.26953 0.66406-0.66406 0.875-1.1875 0.20703-0.51953 0.3125-1.1484 0.3125-1.8906 0-0.72656-0.10547-1.3516-0.3125-1.875-0.21094-0.51953-0.5-0.91406-0.875-1.1875-0.36719-0.28125-0.79297-0.42188-1.2812-0.42188-0.49219 0-0.92188 0.14062-1.2969 0.42188-0.36719 0.27344-0.65234 0.66797-0.85938 1.1875-0.21094 0.52344-0.3125 1.1484-0.3125 1.875 0 0.74219 0.10156 1.3711 0.3125 1.8906 0.20703 0.52344 0.49219 0.91797 0.85938 1.1875 0.375 0.27344 0.80469 0.40625 1.2969 0.40625z"/>
</g>
</g>
<g fill="#fefefe">
<g transform="translate(309.09 376.73)">
<path d="m3.9688 0.078125c-0.64844 0-1.2266-0.17188-1.7344-0.51562-0.51172-0.34375-0.90625-0.83594-1.1875-1.4844-0.28125-0.64453-0.42188-1.4062-0.42188-2.2812s0.14062-1.6289 0.42188-2.2656c0.28125-0.64453 0.67578-1.1406 1.1875-1.4844 0.50781-0.34375 1.0859-0.51562 1.7344-0.51562 0.64453 0 1.2227 0.17188 1.7344 0.51562 0.50781 0.34375 0.90625 0.83984 1.1875 1.4844 0.28906 0.63672 0.4375 1.3906 0.4375 2.2656s-0.14844 1.6367-0.4375 2.2812c-0.28125 0.64844-0.67969 1.1406-1.1875 1.4844-0.51172 0.34375-1.0898 0.51562-1.7344 0.51562zm0-0.79688c0.48828 0 0.91406-0.13281 1.2812-0.40625 0.375-0.26953 0.66406-0.66406 0.875-1.1875 0.20703-0.51953 0.3125-1.1484 0.3125-1.8906 0-0.72656-0.10547-1.3516-0.3125-1.875-0.21094-0.51953-0.5-0.91406-0.875-1.1875-0.36719-0.28125-0.79297-0.42188-1.2812-0.42188-0.49219 0-0.92188 0.14062-1.2969 0.42188-0.36719 0.27344-0.65234 0.66797-0.85938 1.1875-0.21094 0.52344-0.3125 1.1484-0.3125 1.875 0 0.74219 0.10156 1.3711 0.3125 1.8906 0.20703 0.52344 0.49219 0.91797 0.85938 1.1875 0.375 0.27344 0.80469 0.40625 1.2969 0.40625z"/>
</g>
</g>
<g fill="#fefefe">
<g transform="translate(317.04 376.73)">
<path d="m2.8281-4.9531c1.2188 0 2.1016 0.21875 2.6562 0.65625 0.5625 0.4375 0.84375 1.0469 0.84375 1.8281 0 0.49219-0.11719 0.92969-0.34375 1.3125-0.23047 0.375-0.57422 0.67969-1.0312 0.90625-0.46094 0.21875-1.0156 0.32812-1.6719 0.32812-0.60547 0-1.1797-0.097656-1.7188-0.29688-0.54297-0.19531-0.97656-0.46094-1.2969-0.79688l0.42188-0.67188c0.28125 0.28125 0.64453 0.51562 1.0938 0.70312 0.45703 0.17969 0.95312 0.26562 1.4844 0.26562 0.69531 0 1.2344-0.15625 1.6094-0.46875 0.38281-0.3125 0.57812-0.72656 0.57812-1.25 0-0.57031-0.21875-1.0039-0.65625-1.2969-0.42969-0.30078-1.1484-0.45312-2.1562-0.45312h-1.7812l0.42188-4.2188h4.5938v0.78125h-3.8281l-0.29688 2.6719z"/>
</g>
</g>
<g fill="#fefefe">
<g transform="translate(398.84 376.73)">
<path d="m2.9531-8.4062v8.4062h-0.85938v-7.625h-1.9844v-0.78125z"/>
</g>
</g>
<g fill="#fefefe">
<g transform="translate(403.17 376.73)">
<path d="m3.9688 0.078125c-0.64844 0-1.2266-0.17188-1.7344-0.51562-0.51172-0.34375-0.90625-0.83594-1.1875-1.4844-0.28125-0.64453-0.42188-1.4062-0.42188-2.2812s0.14062-1.6289 0.42188-2.2656c0.28125-0.64453 0.67578-1.1406 1.1875-1.4844 0.50781-0.34375 1.0859-0.51562 1.7344-0.51562 0.64453 0 1.2227 0.17188 1.7344 0.51562 0.50781 0.34375 0.90625 0.83984 1.1875 1.4844 0.28906 0.63672 0.4375 1.3906 0.4375 2.2656s-0.14844 1.6367-0.4375 2.2812c-0.28125 0.64844-0.67969 1.1406-1.1875 1.4844-0.51172 0.34375-1.0898 0.51562-1.7344 0.51562zm0-0.79688c0.48828 0 0.91406-0.13281 1.2812-0.40625 0.375-0.26953 0.66406-0.66406 0.875-1.1875 0.20703-0.51953 0.3125-1.1484 0.3125-1.8906 0-0.72656-0.10547-1.3516-0.3125-1.875-0.21094-0.51953-0.5-0.91406-0.875-1.1875-0.36719-0.28125-0.79297-0.42188-1.2812-0.42188-0.49219 0-0.92188 0.14062-1.2969 0.42188-0.36719 0.27344-0.65234 0.66797-0.85938 1.1875-0.21094 0.52344-0.3125 1.1484-0.3125 1.875 0 0.74219 0.10156 1.3711 0.3125 1.8906 0.20703 0.52344 0.49219 0.91797 0.85938 1.1875 0.375 0.27344 0.80469 0.40625 1.2969 0.40625z"/>
</g>
</g>
<g fill="#fefefe">
<g transform="translate(411.12 376.73)">
<path d="m3.9688 0.078125c-0.64844 0-1.2266-0.17188-1.7344-0.51562-0.51172-0.34375-0.90625-0.83594-1.1875-1.4844-0.28125-0.64453-0.42188-1.4062-0.42188-2.2812s0.14062-1.6289 0.42188-2.2656c0.28125-0.64453 0.67578-1.1406 1.1875-1.4844 0.50781-0.34375 1.0859-0.51562 1.7344-0.51562 0.64453 0 1.2227 0.17188 1.7344 0.51562 0.50781 0.34375 0.90625 0.83984 1.1875 1.4844 0.28906 0.63672 0.4375 1.3906 0.4375 2.2656s-0.14844 1.6367-0.4375 2.2812c-0.28125 0.64844-0.67969 1.1406-1.1875 1.4844-0.51172 0.34375-1.0898 0.51562-1.7344 0.51562zm0-0.79688c0.48828 0 0.91406-0.13281 1.2812-0.40625 0.375-0.26953 0.66406-0.66406 0.875-1.1875 0.20703-0.51953 0.3125-1.1484 0.3125-1.8906 0-0.72656-0.10547-1.3516-0.3125-1.875-0.21094-0.51953-0.5-0.91406-0.875-1.1875-0.36719-0.28125-0.79297-0.42188-1.2812-0.42188-0.49219 0-0.92188 0.14062-1.2969 0.42188-0.36719 0.27344-0.65234 0.66797-0.85938 1.1875-0.21094 0.52344-0.3125 1.1484-0.3125 1.875 0 0.74219 0.10156 1.3711 0.3125 1.8906 0.20703 0.52344 0.49219 0.91797 0.85938 1.1875 0.375 0.27344 0.80469 0.40625 1.2969 0.40625z"/>
</g>
</g>
<g fill="#fefefe">
<g transform="translate(419.06 376.73)">
<path d="m6.3594-0.76562v0.76562h-5.8906v-0.60938l3.4844-3.4219c0.44531-0.4375 0.75-0.8125 0.90625-1.125s0.23438-0.62891 0.23438-0.95312c0-0.5-0.17188-0.88281-0.51562-1.1562-0.34375-0.28125-0.82812-0.42188-1.4531-0.42188-0.99219 0-1.7578 0.3125-2.2969 0.9375l-0.60938-0.51562c0.32031-0.38281 0.73828-0.67969 1.25-0.89062 0.50781-0.20703 1.082-0.3125 1.7188-0.3125 0.85156 0 1.5312 0.20312 2.0312 0.60938 0.5 0.39844 0.75 0.94922 0.75 1.6562 0 0.42969-0.09375 0.84375-0.28125 1.25-0.1875 0.39844-0.55469 0.85547-1.0938 1.375l-2.8594 2.8125z"/>
</g>
</g>
<g fill="#fefefe">
<g transform="translate(500.87 376.73)">
<path d="m6.3594-0.76562v0.76562h-5.8906v-0.60938l3.4844-3.4219c0.44531-0.4375 0.75-0.8125 0.90625-1.125s0.23438-0.62891 0.23438-0.95312c0-0.5-0.17188-0.88281-0.51562-1.1562-0.34375-0.28125-0.82812-0.42188-1.4531-0.42188-0.99219 0-1.7578 0.3125-2.2969 0.9375l-0.60938-0.51562c0.32031-0.38281 0.73828-0.67969 1.25-0.89062 0.50781-0.20703 1.082-0.3125 1.7188-0.3125 0.85156 0 1.5312 0.20312 2.0312 0.60938 0.5 0.39844 0.75 0.94922 0.75 1.6562 0 0.42969-0.09375 0.84375-0.28125 1.25-0.1875 0.39844-0.55469 0.85547-1.0938 1.375l-2.8594 2.8125z"/>
</g>
</g>
<g fill="#fefefe">
<g transform="translate(507.68 376.73)">
<path d="m3.9688 0.078125c-0.64844 0-1.2266-0.17188-1.7344-0.51562-0.51172-0.34375-0.90625-0.83594-1.1875-1.4844-0.28125-0.64453-0.42188-1.4062-0.42188-2.2812s0.14062-1.6289 0.42188-2.2656c0.28125-0.64453 0.67578-1.1406 1.1875-1.4844 0.50781-0.34375 1.0859-0.51562 1.7344-0.51562 0.64453 0 1.2227 0.17188 1.7344 0.51562 0.50781 0.34375 0.90625 0.83984 1.1875 1.4844 0.28906 0.63672 0.4375 1.3906 0.4375 2.2656s-0.14844 1.6367-0.4375 2.2812c-0.28125 0.64844-0.67969 1.1406-1.1875 1.4844-0.51172 0.34375-1.0898 0.51562-1.7344 0.51562zm0-0.79688c0.48828 0 0.91406-0.13281 1.2812-0.40625 0.375-0.26953 0.66406-0.66406 0.875-1.1875 0.20703-0.51953 0.3125-1.1484 0.3125-1.8906 0-0.72656-0.10547-1.3516-0.3125-1.875-0.21094-0.51953-0.5-0.91406-0.875-1.1875-0.36719-0.28125-0.79297-0.42188-1.2812-0.42188-0.49219 0-0.92188 0.14062-1.2969 0.42188-0.36719 0.27344-0.65234 0.66797-0.85938 1.1875-0.21094 0.52344-0.3125 1.1484-0.3125 1.875 0 0.74219 0.10156 1.3711 0.3125 1.8906 0.20703 0.52344 0.49219 0.91797 0.85938 1.1875 0.375 0.27344 0.80469 0.40625 1.2969 0.40625z"/>
</g>
</g>
<g fill="#fefefe">
<g transform="translate(515.63 376.73)">
<path d="m3.9688 0.078125c-0.64844 0-1.2266-0.17188-1.7344-0.51562-0.51172-0.34375-0.90625-0.83594-1.1875-1.4844-0.28125-0.64453-0.42188-1.4062-0.42188-2.2812s0.14062-1.6289 0.42188-2.2656c0.28125-0.64453 0.67578-1.1406 1.1875-1.4844 0.50781-0.34375 1.0859-0.51562 1.7344-0.51562 0.64453 0 1.2227 0.17188 1.7344 0.51562 0.50781 0.34375 0.90625 0.83984 1.1875 1.4844 0.28906 0.63672 0.4375 1.3906 0.4375 2.2656s-0.14844 1.6367-0.4375 2.2812c-0.28125 0.64844-0.67969 1.1406-1.1875 1.4844-0.51172 0.34375-1.0898 0.51562-1.7344 0.51562zm0-0.79688c0.48828 0 0.91406-0.13281 1.2812-0.40625 0.375-0.26953 0.66406-0.66406 0.875-1.1875 0.20703-0.51953 0.3125-1.1484 0.3125-1.8906 0-0.72656-0.10547-1.3516-0.3125-1.875-0.21094-0.51953-0.5-0.91406-0.875-1.1875-0.36719-0.28125-0.79297-0.42188-1.2812-0.42188-0.49219 0-0.92188 0.14062-1.2969 0.42188-0.36719 0.27344-0.65234 0.66797-0.85938 1.1875-0.21094 0.52344-0.3125 1.1484-0.3125 1.875 0 0.74219 0.10156 1.3711 0.3125 1.8906 0.20703 0.52344 0.49219 0.91797 0.85938 1.1875 0.375 0.27344 0.80469 0.40625 1.2969 0.40625z"/>
</g>
</g>
<g fill="#fefefe">
<g transform="translate(523.57 376.73)">
<path d="m6.5469-8.4062v0.625l-3.5156 7.7812h-0.9375l3.4688-7.625h-4.3281v1.5625h-0.84375v-2.3438z"/>
</g>
</g>
<g clip-path="url(#b)">
<path d="m286.32 172.8v228.9m102.02-228.9v228.9m102.03-228.9v228.9m-306.07-171.68h408.1m-408.1 57.227h408.1m-408.1 57.227h408.1"/>
</g>
<g clip-path="url(#a)">
<path transform="matrix(.75 0 0 .75 184.29 172.8)" d="m136.03 0.0010246v305.2m136.03-305.2v305.2m136.04-305.2v305.2m-408.1-228.9h544.13m-544.13 76.302h544.13m-544.13 76.302h544.13" fill="none" stroke="#fefefe" stroke-width="2"/>
</g>
</svg>
