<?xml version="1.0" encoding="UTF-8"?>
<svg version="1.0" viewBox="116.9 224.9 534.2 126.2" xmlns="http://www.w3.org/2000/svg" zoomAndPan="magnify">
<defs>
<clipPath id="a">
<path d="m118.4 226h531.6v124h-531.6z"/>
</clipPath>
<clipPath id="b">
<path d="m118.4 225.28h531.75v125.72h-531.75z"/>
</clipPath>
</defs>
<g fill="#fefefe">
<g transform="translate(135.65 262.03)">
<path d="m6.9375 0-2.6719-3.5156-2.6875 3.5156h-1.2812l3.3281-4.3125-3.1562-4.1094h1.2812l2.5156 3.2969 2.5312-3.2969h1.25l-3.1719 4.1094 3.3594 4.3125z"/>
</g>
</g>
<g fill="#fefefe">
<g transform="translate(275.32 262.03)">
<path d="m3.9375-11.203v11.203h-1.1562v-10.172h-2.6406v-1.0312z"/>
</g>
</g>
<g fill="#fefefe">
<g transform="translate(379.44 262.03)">
<path d="m8.4844-1.0312v1.0312h-7.8594v-0.8125l4.6562-4.5625c0.58203-0.57031 0.97656-1.0664 1.1875-1.4844 0.20703-0.42578 0.3125-0.85156 0.3125-1.2812 0-0.66406-0.23047-1.1797-0.6875-1.5469-0.44922-0.36328-1.0938-0.54688-1.9375-0.54688-1.3125 0-2.3281 0.41797-3.0469 1.25l-0.82812-0.71875c0.4375-0.50781 0.99219-0.89844 1.6719-1.1719 0.67578-0.28125 1.4414-0.42188 2.2969-0.42188 1.1445 0 2.0508 0.27344 2.7188 0.8125 0.66406 0.53125 1 1.2734 1 2.2188 0 0.57422-0.13281 1.125-0.39062 1.6562-0.25 0.53125-0.73438 1.1484-1.4531 1.8438l-3.8125 3.7344z"/>
</g>
</g>
<g fill="#fefefe">
<g transform="translate(485.27 262.03)">
<path d="m4.6406-6.4062c1.1758 0.074219 2.0664 0.39844 2.6719 0.96875 0.61328 0.5625 0.92188 1.3047 0.92188 2.2188 0 0.64844-0.15625 1.2188-0.46875 1.7188-0.30469 0.49219-0.76172 0.88281-1.375 1.1719-0.60547 0.28125-1.3438 0.42188-2.2188 0.42188-0.8125 0-1.5781-0.12891-2.2969-0.39062-0.71875-0.25781-1.2969-0.60938-1.7344-1.0469l0.5625-0.90625c0.375 0.375 0.86719 0.6875 1.4844 0.9375 0.625 0.24219 1.2852 0.35938 1.9844 0.35938 0.91406 0 1.625-0.19531 2.125-0.59375 0.50781-0.40625 0.76562-0.96094 0.76562-1.6719 0-0.6875-0.25781-1.2266-0.76562-1.625-0.5-0.39453-1.2578-0.59375-2.2656-0.59375h-0.79688v-0.84375l3.1094-3.8906h-5.7344v-1.0312h7.2031v0.8125z"/>
</g>
</g>
<g fill="#fefefe">
<g transform="translate(590.29 262.03)">
<path d="m10.359-2.9375h-2.25v2.9375h-1.1562v-2.9375h-6.3125v-0.84375l5.9375-7.4219h1.2812l-5.7344 7.2344h4.8594v-2.5938h1.125v2.5938h2.25z"/>
</g>
</g>
<g fill="#fefefe">
<g transform="translate(135.65 323.63)">
<path d="m6.0156-11.203c1.4258 0 2.5469 0.34375 3.3594 1.0312 0.8125 0.67969 1.2188 1.6172 1.2188 2.8125 0 1.1992-0.40625 2.1367-1.2188 2.8125-0.8125 0.67969-1.9336 1.0156-3.3594 1.0156h-3v3.5312h-1.1875v-11.203zm-0.03125 6.625c1.1016 0 1.9453-0.23828 2.5312-0.71875 0.59375-0.48828 0.89062-1.1758 0.89062-2.0625 0-0.90625-0.29688-1.5977-0.89062-2.0781-0.58594-0.48828-1.4297-0.73438-2.5312-0.73438h-2.9688v5.5938z"/>
</g>
</g>
<g fill="#fefefe">
<g transform="translate(147.14 323.63)">
<path d="m3.5156 3.1094c-0.59375-0.99219-1.0547-2.1211-1.375-3.3906-0.32422-1.2695-0.48438-2.6406-0.48438-4.1094 0-1.457 0.16016-2.8281 0.48438-4.1094 0.32031-1.2891 0.78125-2.4141 1.375-3.375h1.0938c-0.63672 1.0859-1.1016 2.2461-1.3906 3.4844-0.29297 1.2305-0.4375 2.5625-0.4375 4 0 1.4492 0.14453 2.793 0.4375 4.0312 0.28906 1.2266 0.75391 2.3828 1.3906 3.4688z"/>
</g>
</g>
<g fill="#fefefe">
<g transform="translate(152.4 323.63)">
<path d="m8.8438 0-3.6094-4.9219-3.6094 4.9219h-1.3594l4.2656-5.7656-3.9844-5.4375h1.3594l3.375 4.5781 3.3594-4.5781h1.2812l-3.9688 5.4062 4.2656 5.7969z"/>
</g>
</g>
<g fill="#fefefe">
<g transform="translate(162.89 323.63)"/>
</g>
<g fill="#fefefe">
<g transform="translate(167.08 323.63)">
<path d="m1.125-7.9219h6.9531v0.95312h-6.9531zm0 3.7031h6.9531v0.9375h-6.9531z"/>
</g>
</g>
<g fill="#fefefe">
<g transform="translate(176.28 323.63)"/>
</g>
<g fill="#fefefe">
<g transform="translate(180.47 323.63)">
<path d="m6.9375 0-2.6719-3.5156-2.6875 3.5156h-1.2812l3.3281-4.3125-3.1562-4.1094h1.2812l2.5156 3.2969 2.5312-3.2969h1.25l-3.1719 4.1094 3.3594 4.3125z"/>
</g>
</g>
<g fill="#fefefe">
<g transform="translate(189.01 323.63)">
<path d="m0.64062 3.1094c0.625-1.0859 1.0859-2.2422 1.3906-3.4688 0.30078-1.2266 0.45312-2.5703 0.45312-4.0312 0-1.4453-0.15234-2.7852-0.45312-4.0156-0.30469-1.2266-0.76562-2.3828-1.3906-3.4688h1.0938c0.59375 0.96094 1.0508 2.0859 1.375 3.375 0.32031 1.2812 0.48438 2.6523 0.48438 4.1094 0 1.4688-0.16406 2.8438-0.48438 4.125-0.3125 1.2695-0.77344 2.3945-1.375 3.375z"/>
</g>
</g>
<g fill="#fefefe">
<g transform="translate(260.81 323.63)">
<path d="m5.2969 0.09375c-0.86719 0-1.6367-0.22656-2.3125-0.6875-0.67969-0.45703-1.2109-1.1133-1.5938-1.9688-0.375-0.86328-0.5625-1.875-0.5625-3.0312 0-1.1641 0.1875-2.1758 0.5625-3.0312 0.38281-0.86328 0.91406-1.5234 1.5938-1.9844 0.67578-0.45703 1.4453-0.6875 2.3125-0.6875 0.86328 0 1.6328 0.23047 2.3125 0.6875 0.67578 0.46094 1.207 1.1211 1.5938 1.9844 0.38281 0.85547 0.57812 1.8672 0.57812 3.0312 0 1.1562-0.19531 2.168-0.57812 3.0312-0.38672 0.85547-0.91797 1.5117-1.5938 1.9688-0.67969 0.46094-1.4492 0.6875-2.3125 0.6875zm0-1.0469c0.64453 0 1.2188-0.17969 1.7188-0.54688 0.5-0.36328 0.88281-0.89062 1.1562-1.5781 0.28125-0.69531 0.42188-1.5352 0.42188-2.5156 0-0.98828-0.14062-1.8281-0.42188-2.5156-0.27344-0.69531-0.65625-1.2227-1.1562-1.5781-0.5-0.36328-1.0742-0.54688-1.7188-0.54688-0.65625 0-1.2344 0.18359-1.7344 0.54688-0.49219 0.35547-0.875 0.88281-1.1562 1.5781-0.27344 0.6875-0.40625 1.5273-0.40625 2.5156 0 0.98047 0.13281 1.8203 0.40625 2.5156 0.28125 0.6875 0.66406 1.2148 1.1562 1.5781 0.5 0.36719 1.0781 0.54688 1.7344 0.54688z"/>
</g>
</g>
<g fill="#fefefe">
<g transform="translate(271.4 323.63)">
<path d="m1.7031 0.078125c-0.24219 0-0.44531-0.082031-0.60938-0.25-0.16797-0.17578-0.25-0.38281-0.25-0.625 0-0.25 0.082031-0.45312 0.25-0.60938 0.16406-0.16406 0.36719-0.25 0.60938-0.25 0.22656 0 0.42578 0.085938 0.59375 0.25 0.17578 0.15625 0.26562 0.35938 0.26562 0.60938 0 0.24219-0.089844 0.44922-0.26562 0.625-0.16797 0.16797-0.36719 0.25-0.59375 0.25z"/>
</g>
</g>
<g fill="#fefefe">
<g transform="translate(274.79 323.63)">
<path d="m5.2969 0.09375c-0.86719 0-1.6367-0.22656-2.3125-0.6875-0.67969-0.45703-1.2109-1.1133-1.5938-1.9688-0.375-0.86328-0.5625-1.875-0.5625-3.0312 0-1.1641 0.1875-2.1758 0.5625-3.0312 0.38281-0.86328 0.91406-1.5234 1.5938-1.9844 0.67578-0.45703 1.4453-0.6875 2.3125-0.6875 0.86328 0 1.6328 0.23047 2.3125 0.6875 0.67578 0.46094 1.207 1.1211 1.5938 1.9844 0.38281 0.85547 0.57812 1.8672 0.57812 3.0312 0 1.1562-0.19531 2.168-0.57812 3.0312-0.38672 0.85547-0.91797 1.5117-1.5938 1.9688-0.67969 0.46094-1.4492 0.6875-2.3125 0.6875zm0-1.0469c0.64453 0 1.2188-0.17969 1.7188-0.54688 0.5-0.36328 0.88281-0.89062 1.1562-1.5781 0.28125-0.69531 0.42188-1.5352 0.42188-2.5156 0-0.98828-0.14062-1.8281-0.42188-2.5156-0.27344-0.69531-0.65625-1.2227-1.1562-1.5781-0.5-0.36328-1.0742-0.54688-1.7188-0.54688-0.65625 0-1.2344 0.18359-1.7344 0.54688-0.49219 0.35547-0.875 0.88281-1.1562 1.5781-0.27344 0.6875-0.40625 1.5273-0.40625 2.5156 0 0.98047 0.13281 1.8203 0.40625 2.5156 0.28125 0.6875 0.66406 1.2148 1.1562 1.5781 0.5 0.36719 1.0781 0.54688 1.7344 0.54688z"/>
</g>
</g>
<g fill="#fefefe">
<g transform="translate(285.38 323.63)">
<path d="m7.25-5.875c0.69531 0.24219 1.2344 0.59375 1.6094 1.0625 0.38281 0.46875 0.57812 1.0312 0.57812 1.6875s-0.17969 1.2305-0.53125 1.7188c-0.34375 0.48047-0.84375 0.85156-1.5 1.1094-0.65625 0.26172-1.4297 0.39062-2.3125 0.39062-1.3438 0-2.4023-0.28516-3.1719-0.85938-0.77344-0.57031-1.1562-1.3594-1.1562-2.3594 0-0.66406 0.17969-1.2266 0.54688-1.6875 0.375-0.46875 0.91016-0.82031 1.6094-1.0625-0.57422-0.21875-1.0117-0.53516-1.3125-0.95312-0.29297-0.42578-0.4375-0.92969-0.4375-1.5156 0-0.90625 0.35156-1.625 1.0625-2.1562 0.70703-0.53125 1.6602-0.79688 2.8594-0.79688 0.78125 0 1.4688 0.12109 2.0625 0.35938 0.59375 0.24219 1.0547 0.58594 1.3906 1.0312 0.33203 0.44922 0.5 0.96875 0.5 1.5625 0 0.58594-0.15625 1.0898-0.46875 1.5156-0.3125 0.41797-0.75781 0.73438-1.3281 0.95312zm-4.9375-2.4219c0 0.61719 0.24219 1.1055 0.73438 1.4688 0.5 0.36719 1.1797 0.54688 2.0469 0.54688 0.86328 0 1.5391-0.17969 2.0312-0.54688 0.5-0.36328 0.75-0.84766 0.75-1.4531 0-0.63281-0.25781-1.1289-0.76562-1.4844-0.5-0.36328-1.1719-0.54688-2.0156-0.54688-0.85547 0-1.5312 0.18359-2.0312 0.54688-0.5 0.35547-0.75 0.84375-0.75 1.4688zm2.7812 7.4219c0.98828 0 1.7578-0.20312 2.3125-0.60938 0.5625-0.40625 0.84375-0.95703 0.84375-1.6562 0-0.6875-0.28125-1.2266-0.84375-1.625-0.55469-0.40625-1.3242-0.60938-2.3125-0.60938-0.99219 0-1.7656 0.20312-2.3281 0.60938-0.55469 0.39844-0.82812 0.9375-0.82812 1.625 0 0.71094 0.27344 1.2656 0.82812 1.6719 0.55078 0.39844 1.3281 0.59375 2.3281 0.59375z"/>
</g>
</g>
<g fill="#fefefe">
<g transform="translate(357.61 323.63)">
<path d="m5.2969 0.09375c-0.86719 0-1.6367-0.22656-2.3125-0.6875-0.67969-0.45703-1.2109-1.1133-1.5938-1.9688-0.375-0.86328-0.5625-1.875-0.5625-3.0312 0-1.1641 0.1875-2.1758 0.5625-3.0312 0.38281-0.86328 0.91406-1.5234 1.5938-1.9844 0.67578-0.45703 1.4453-0.6875 2.3125-0.6875 0.86328 0 1.6328 0.23047 2.3125 0.6875 0.67578 0.46094 1.207 1.1211 1.5938 1.9844 0.38281 0.85547 0.57812 1.8672 0.57812 3.0312 0 1.1562-0.19531 2.168-0.57812 3.0312-0.38672 0.85547-0.91797 1.5117-1.5938 1.9688-0.67969 0.46094-1.4492 0.6875-2.3125 0.6875zm0-1.0469c0.64453 0 1.2188-0.17969 1.7188-0.54688 0.5-0.36328 0.88281-0.89062 1.1562-1.5781 0.28125-0.69531 0.42188-1.5352 0.42188-2.5156 0-0.98828-0.14062-1.8281-0.42188-2.5156-0.27344-0.69531-0.65625-1.2227-1.1562-1.5781-0.5-0.36328-1.0742-0.54688-1.7188-0.54688-0.65625 0-1.2344 0.18359-1.7344 0.54688-0.49219 0.35547-0.875 0.88281-1.1562 1.5781-0.27344 0.6875-0.40625 1.5273-0.40625 2.5156 0 0.98047 0.13281 1.8203 0.40625 2.5156 0.28125 0.6875 0.66406 1.2148 1.1562 1.5781 0.5 0.36719 1.0781 0.54688 1.7344 0.54688z"/>
</g>
</g>
<g fill="#fefefe">
<g transform="translate(368.2 323.63)">
<path d="m1.7031 0.078125c-0.24219 0-0.44531-0.082031-0.60938-0.25-0.16797-0.17578-0.25-0.38281-0.25-0.625 0-0.25 0.082031-0.45312 0.25-0.60938 0.16406-0.16406 0.36719-0.25 0.60938-0.25 0.22656 0 0.42578 0.085938 0.59375 0.25 0.17578 0.15625 0.26562 0.35938 0.26562 0.60938 0 0.24219-0.089844 0.44922-0.26562 0.625-0.16797 0.16797-0.36719 0.25-0.59375 0.25z"/>
</g>
</g>
<g fill="#fefefe">
<g transform="translate(371.59 323.63)">
<path d="m5.2969 0.09375c-0.86719 0-1.6367-0.22656-2.3125-0.6875-0.67969-0.45703-1.2109-1.1133-1.5938-1.9688-0.375-0.86328-0.5625-1.875-0.5625-3.0312 0-1.1641 0.1875-2.1758 0.5625-3.0312 0.38281-0.86328 0.91406-1.5234 1.5938-1.9844 0.67578-0.45703 1.4453-0.6875 2.3125-0.6875 0.86328 0 1.6328 0.23047 2.3125 0.6875 0.67578 0.46094 1.207 1.1211 1.5938 1.9844 0.38281 0.85547 0.57812 1.8672 0.57812 3.0312 0 1.1562-0.19531 2.168-0.57812 3.0312-0.38672 0.85547-0.91797 1.5117-1.5938 1.9688-0.67969 0.46094-1.4492 0.6875-2.3125 0.6875zm0-1.0469c0.64453 0 1.2188-0.17969 1.7188-0.54688 0.5-0.36328 0.88281-0.89062 1.1562-1.5781 0.28125-0.69531 0.42188-1.5352 0.42188-2.5156 0-0.98828-0.14062-1.8281-0.42188-2.5156-0.27344-0.69531-0.65625-1.2227-1.1562-1.5781-0.5-0.36328-1.0742-0.54688-1.7188-0.54688-0.65625 0-1.2344 0.18359-1.7344 0.54688-0.49219 0.35547-0.875 0.88281-1.1562 1.5781-0.27344 0.6875-0.40625 1.5273-0.40625 2.5156 0 0.98047 0.13281 1.8203 0.40625 2.5156 0.28125 0.6875 0.66406 1.2148 1.1562 1.5781 0.5 0.36719 1.0781 0.54688 1.7344 0.54688z"/>
</g>
</g>
<g fill="#fefefe">
<g transform="translate(382.18 323.63)">
<path d="m8.7344-11.203v0.8125l-4.6875 10.391h-1.25l4.6094-10.172h-5.7656v2.0938h-1.125v-3.125z"/>
</g>
</g>
<g fill="#fefefe">
<g transform="translate(391.6 323.63)">
<path d="m4.6406-6.4062c1.1758 0.074219 2.0664 0.39844 2.6719 0.96875 0.61328 0.5625 0.92188 1.3047 0.92188 2.2188 0 0.64844-0.15625 1.2188-0.46875 1.7188-0.30469 0.49219-0.76172 0.88281-1.375 1.1719-0.60547 0.28125-1.3438 0.42188-2.2188 0.42188-0.8125 0-1.5781-0.12891-2.2969-0.39062-0.71875-0.25781-1.2969-0.60938-1.7344-1.0469l0.5625-0.90625c0.375 0.375 0.86719 0.6875 1.4844 0.9375 0.625 0.24219 1.2852 0.35938 1.9844 0.35938 0.91406 0 1.625-0.19531 2.125-0.59375 0.50781-0.40625 0.76562-0.96094 0.76562-1.6719 0-0.6875-0.25781-1.2266-0.76562-1.625-0.5-0.39453-1.2578-0.59375-2.2656-0.59375h-0.79688v-0.84375l3.1094-3.8906h-5.7344v-1.0312h7.2031v0.8125z"/>
</g>
</g>
<g fill="#fefefe">
<g transform="translate(400.63 323.63)">
<path d="m5.4688-6.7031c0.73828 0 1.3906 0.14062 1.9531 0.42188 0.57031 0.27344 1.0195 0.66406 1.3438 1.1719 0.32031 0.5 0.48438 1.0898 0.48438 1.7656 0 0.6875-0.16797 1.293-0.5 1.8125-0.33594 0.52344-0.79297 0.92188-1.375 1.2031-0.57422 0.28125-1.2266 0.42188-1.9531 0.42188-1.4805 0-2.6172-0.48438-3.4062-1.4531-0.79297-0.97656-1.1875-2.3594-1.1875-4.1406 0-1.25 0.21094-2.3047 0.64062-3.1719 0.42578-0.86328 1.0234-1.5156 1.7969-1.9531 0.76953-0.44531 1.6641-0.67188 2.6875-0.67188 1.1016 0 1.9883 0.20312 2.6562 0.60938l-0.46875 0.92188c-0.53125-0.34375-1.2578-0.51562-2.1719-0.51562-1.2422 0-2.2148 0.39062-2.9219 1.1719-0.69922 0.78125-1.0469 1.918-1.0469 3.4062 0 0.27344 0.015625 0.57812 0.046875 0.92188 0.28125-0.61328 0.72266-1.0859 1.3281-1.4219 0.60156-0.33203 1.3008-0.5 2.0938-0.5zm-0.09375 5.8281c0.8125 0 1.4688-0.21875 1.9688-0.65625 0.50781-0.44531 0.76562-1.0391 0.76562-1.7812 0-0.73828-0.25781-1.3281-0.76562-1.7656-0.5-0.4375-1.1836-0.65625-2.0469-0.65625-0.5625 0-1.0625 0.10938-1.5 0.32812-0.42969 0.21094-0.76562 0.5-1.0156 0.875-0.24219 0.375-0.35938 0.79297-0.35938 1.25 0 0.42969 0.11328 0.82422 0.34375 1.1875 0.22656 0.36719 0.56641 0.66406 1.0156 0.89062 0.44531 0.21875 0.97656 0.32812 1.5938 0.32812z"/>
</g>
</g>
<g fill="#fefefe">
<g transform="translate(455.77 323.63)">
<path d="m5.2969 0.09375c-0.86719 0-1.6367-0.22656-2.3125-0.6875-0.67969-0.45703-1.2109-1.1133-1.5938-1.9688-0.375-0.86328-0.5625-1.875-0.5625-3.0312 0-1.1641 0.1875-2.1758 0.5625-3.0312 0.38281-0.86328 0.91406-1.5234 1.5938-1.9844 0.67578-0.45703 1.4453-0.6875 2.3125-0.6875 0.86328 0 1.6328 0.23047 2.3125 0.6875 0.67578 0.46094 1.207 1.1211 1.5938 1.9844 0.38281 0.85547 0.57812 1.8672 0.57812 3.0312 0 1.1562-0.19531 2.168-0.57812 3.0312-0.38672 0.85547-0.91797 1.5117-1.5938 1.9688-0.67969 0.46094-1.4492 0.6875-2.3125 0.6875zm0-1.0469c0.64453 0 1.2188-0.17969 1.7188-0.54688 0.5-0.36328 0.88281-0.89062 1.1562-1.5781 0.28125-0.69531 0.42188-1.5352 0.42188-2.5156 0-0.98828-0.14062-1.8281-0.42188-2.5156-0.27344-0.69531-0.65625-1.2227-1.1562-1.5781-0.5-0.36328-1.0742-0.54688-1.7188-0.54688-0.65625 0-1.2344 0.18359-1.7344 0.54688-0.49219 0.35547-0.875 0.88281-1.1562 1.5781-0.27344 0.6875-0.40625 1.5273-0.40625 2.5156 0 0.98047 0.13281 1.8203 0.40625 2.5156 0.28125 0.6875 0.66406 1.2148 1.1562 1.5781 0.5 0.36719 1.0781 0.54688 1.7344 0.54688z"/>
</g>
</g>
<g fill="#fefefe">
<g transform="translate(466.36 323.63)">
<path d="m1.7031 0.078125c-0.24219 0-0.44531-0.082031-0.60938-0.25-0.16797-0.17578-0.25-0.38281-0.25-0.625 0-0.25 0.082031-0.45312 0.25-0.60938 0.16406-0.16406 0.36719-0.25 0.60938-0.25 0.22656 0 0.42578 0.085938 0.59375 0.25 0.17578 0.15625 0.26562 0.35938 0.26562 0.60938 0 0.24219-0.089844 0.44922-0.26562 0.625-0.16797 0.16797-0.36719 0.25-0.59375 0.25z"/>
</g>
</g>
<g fill="#fefefe">
<g transform="translate(469.75 323.63)">
<path d="m5.2969 0.09375c-0.86719 0-1.6367-0.22656-2.3125-0.6875-0.67969-0.45703-1.2109-1.1133-1.5938-1.9688-0.375-0.86328-0.5625-1.875-0.5625-3.0312 0-1.1641 0.1875-2.1758 0.5625-3.0312 0.38281-0.86328 0.91406-1.5234 1.5938-1.9844 0.67578-0.45703 1.4453-0.6875 2.3125-0.6875 0.86328 0 1.6328 0.23047 2.3125 0.6875 0.67578 0.46094 1.207 1.1211 1.5938 1.9844 0.38281 0.85547 0.57812 1.8672 0.57812 3.0312 0 1.1562-0.19531 2.168-0.57812 3.0312-0.38672 0.85547-0.91797 1.5117-1.5938 1.9688-0.67969 0.46094-1.4492 0.6875-2.3125 0.6875zm0-1.0469c0.64453 0 1.2188-0.17969 1.7188-0.54688 0.5-0.36328 0.88281-0.89062 1.1562-1.5781 0.28125-0.69531 0.42188-1.5352 0.42188-2.5156 0-0.98828-0.14062-1.8281-0.42188-2.5156-0.27344-0.69531-0.65625-1.2227-1.1562-1.5781-0.5-0.36328-1.0742-0.54688-1.7188-0.54688-0.65625 0-1.2344 0.18359-1.7344 0.54688-0.49219 0.35547-0.875 0.88281-1.1562 1.5781-0.27344 0.6875-0.40625 1.5273-0.40625 2.5156 0 0.98047 0.13281 1.8203 0.40625 2.5156 0.28125 0.6875 0.66406 1.2148 1.1562 1.5781 0.5 0.36719 1.0781 0.54688 1.7344 0.54688z"/>
</g>
</g>
<g fill="#fefefe">
<g transform="translate(480.34 323.63)">
<path d="m5.4688-6.7031c0.73828 0 1.3906 0.14062 1.9531 0.42188 0.57031 0.27344 1.0195 0.66406 1.3438 1.1719 0.32031 0.5 0.48438 1.0898 0.48438 1.7656 0 0.6875-0.16797 1.293-0.5 1.8125-0.33594 0.52344-0.79297 0.92188-1.375 1.2031-0.57422 0.28125-1.2266 0.42188-1.9531 0.42188-1.4805 0-2.6172-0.48438-3.4062-1.4531-0.79297-0.97656-1.1875-2.3594-1.1875-4.1406 0-1.25 0.21094-2.3047 0.64062-3.1719 0.42578-0.86328 1.0234-1.5156 1.7969-1.9531 0.76953-0.44531 1.6641-0.67188 2.6875-0.67188 1.1016 0 1.9883 0.20312 2.6562 0.60938l-0.46875 0.92188c-0.53125-0.34375-1.2578-0.51562-2.1719-0.51562-1.2422 0-2.2148 0.39062-2.9219 1.1719-0.69922 0.78125-1.0469 1.918-1.0469 3.4062 0 0.27344 0.015625 0.57812 0.046875 0.92188 0.28125-0.61328 0.72266-1.0859 1.3281-1.4219 0.60156-0.33203 1.3008-0.5 2.0938-0.5zm-0.09375 5.8281c0.8125 0 1.4688-0.21875 1.9688-0.65625 0.50781-0.44531 0.76562-1.0391 0.76562-1.7812 0-0.73828-0.25781-1.3281-0.76562-1.7656-0.5-0.4375-1.1836-0.65625-2.0469-0.65625-0.5625 0-1.0625 0.10938-1.5 0.32812-0.42969 0.21094-0.76562 0.5-1.0156 0.875-0.24219 0.375-0.35938 0.79297-0.35938 1.25 0 0.42969 0.11328 0.82422 0.34375 1.1875 0.22656 0.36719 0.56641 0.66406 1.0156 0.89062 0.44531 0.21875 0.97656 0.32812 1.5938 0.32812z"/>
</g>
</g>
<g fill="#fefefe">
<g transform="translate(490.09 323.63)">
<path d="m8.7344-11.203v0.8125l-4.6875 10.391h-1.25l4.6094-10.172h-5.7656v2.0938h-1.125v-3.125z"/>
</g>
</g>
<g fill="#fefefe">
<g transform="translate(499.51 323.63)">
<path d="m8.7344-11.203v0.8125l-4.6875 10.391h-1.25l4.6094-10.172h-5.7656v2.0938h-1.125v-3.125z"/>
</g>
</g>
<g fill="#fefefe">
<g transform="translate(508.93 323.63)">
<path d="m3.9375-11.203v11.203h-1.1562v-10.172h-2.6406v-1.0312z"/>
</g>
</g>
<g fill="#fefefe">
<g transform="translate(514.7 323.63)">
<path d="m8.4844-1.0312v1.0312h-7.8594v-0.8125l4.6562-4.5625c0.58203-0.57031 0.97656-1.0664 1.1875-1.4844 0.20703-0.42578 0.3125-0.85156 0.3125-1.2812 0-0.66406-0.23047-1.1797-0.6875-1.5469-0.44922-0.36328-1.0938-0.54688-1.9375-0.54688-1.3125 0-2.3281 0.41797-3.0469 1.25l-0.82812-0.71875c0.4375-0.50781 0.99219-0.89844 1.6719-1.1719 0.67578-0.28125 1.4414-0.42188 2.2969-0.42188 1.1445 0 2.0508 0.27344 2.7188 0.8125 0.66406 0.53125 1 1.2734 1 2.2188 0 0.57422-0.13281 1.125-0.39062 1.6562-0.25 0.53125-0.73438 1.1484-1.4531 1.8438l-3.8125 3.7344z"/>
</g>
</g>
<g fill="#fefefe">
<g transform="translate(558.99 323.63)">
<path d="m5.2969 0.09375c-0.86719 0-1.6367-0.22656-2.3125-0.6875-0.67969-0.45703-1.2109-1.1133-1.5938-1.9688-0.375-0.86328-0.5625-1.875-0.5625-3.0312 0-1.1641 0.1875-2.1758 0.5625-3.0312 0.38281-0.86328 0.91406-1.5234 1.5938-1.9844 0.67578-0.45703 1.4453-0.6875 2.3125-0.6875 0.86328 0 1.6328 0.23047 2.3125 0.6875 0.67578 0.46094 1.207 1.1211 1.5938 1.9844 0.38281 0.85547 0.57812 1.8672 0.57812 3.0312 0 1.1562-0.19531 2.168-0.57812 3.0312-0.38672 0.85547-0.91797 1.5117-1.5938 1.9688-0.67969 0.46094-1.4492 0.6875-2.3125 0.6875zm0-1.0469c0.64453 0 1.2188-0.17969 1.7188-0.54688 0.5-0.36328 0.88281-0.89062 1.1562-1.5781 0.28125-0.69531 0.42188-1.5352 0.42188-2.5156 0-0.98828-0.14062-1.8281-0.42188-2.5156-0.27344-0.69531-0.65625-1.2227-1.1562-1.5781-0.5-0.36328-1.0742-0.54688-1.7188-0.54688-0.65625 0-1.2344 0.18359-1.7344 0.54688-0.49219 0.35547-0.875 0.88281-1.1562 1.5781-0.27344 0.6875-0.40625 1.5273-0.40625 2.5156 0 0.98047 0.13281 1.8203 0.40625 2.5156 0.28125 0.6875 0.66406 1.2148 1.1562 1.5781 0.5 0.36719 1.0781 0.54688 1.7344 0.54688z"/>
</g>
</g>
<g fill="#fefefe">
<g transform="translate(569.58 323.63)">
<path d="m1.7031 0.078125c-0.24219 0-0.44531-0.082031-0.60938-0.25-0.16797-0.17578-0.25-0.38281-0.25-0.625 0-0.25 0.082031-0.45312 0.25-0.60938 0.16406-0.16406 0.36719-0.25 0.60938-0.25 0.22656 0 0.42578 0.085938 0.59375 0.25 0.17578 0.15625 0.26562 0.35938 0.26562 0.60938 0 0.24219-0.089844 0.44922-0.26562 0.625-0.16797 0.16797-0.36719 0.25-0.59375 0.25z"/>
</g>
</g>
<g fill="#fefefe">
<g transform="translate(572.97 323.63)">
<path d="m8.7344-11.203v0.8125l-4.6875 10.391h-1.25l4.6094-10.172h-5.7656v2.0938h-1.125v-3.125z"/>
</g>
</g>
<g fill="#fefefe">
<g transform="translate(582.39 323.63)">
<path d="m8.7344-11.203v0.8125l-4.6875 10.391h-1.25l4.6094-10.172h-5.7656v2.0938h-1.125v-3.125z"/>
</g>
</g>
<g fill="#fefefe">
<g transform="translate(591.81 323.63)">
<path d="m7.25-5.875c0.69531 0.24219 1.2344 0.59375 1.6094 1.0625 0.38281 0.46875 0.57812 1.0312 0.57812 1.6875s-0.17969 1.2305-0.53125 1.7188c-0.34375 0.48047-0.84375 0.85156-1.5 1.1094-0.65625 0.26172-1.4297 0.39062-2.3125 0.39062-1.3438 0-2.4023-0.28516-3.1719-0.85938-0.77344-0.57031-1.1562-1.3594-1.1562-2.3594 0-0.66406 0.17969-1.2266 0.54688-1.6875 0.375-0.46875 0.91016-0.82031 1.6094-1.0625-0.57422-0.21875-1.0117-0.53516-1.3125-0.95312-0.29297-0.42578-0.4375-0.92969-0.4375-1.5156 0-0.90625 0.35156-1.625 1.0625-2.1562 0.70703-0.53125 1.6602-0.79688 2.8594-0.79688 0.78125 0 1.4688 0.12109 2.0625 0.35938 0.59375 0.24219 1.0547 0.58594 1.3906 1.0312 0.33203 0.44922 0.5 0.96875 0.5 1.5625 0 0.58594-0.15625 1.0898-0.46875 1.5156-0.3125 0.41797-0.75781 0.73438-1.3281 0.95312zm-4.9375-2.4219c0 0.61719 0.24219 1.1055 0.73438 1.4688 0.5 0.36719 1.1797 0.54688 2.0469 0.54688 0.86328 0 1.5391-0.17969 2.0312-0.54688 0.5-0.36328 0.75-0.84766 0.75-1.4531 0-0.63281-0.25781-1.1289-0.76562-1.4844-0.5-0.36328-1.1719-0.54688-2.0156-0.54688-0.85547 0-1.5312 0.18359-2.0312 0.54688-0.5 0.35547-0.75 0.84375-0.75 1.4688zm2.7812 7.4219c0.98828 0 1.7578-0.20312 2.3125-0.60938 0.5625-0.40625 0.84375-0.95703 0.84375-1.6562 0-0.6875-0.28125-1.2266-0.84375-1.625-0.55469-0.40625-1.3242-0.60938-2.3125-0.60938-0.99219 0-1.7656 0.20312-2.3281 0.60938-0.55469 0.39844-0.82812 0.9375-0.82812 1.625 0 0.71094 0.27344 1.2656 0.82812 1.6719 0.55078 0.39844 1.3281 0.59375 2.3281 0.59375z"/>
</g>
</g>
<g fill="#fefefe">
<g transform="translate(602.02 323.63)">
<path d="m5.4688-6.7031c0.73828 0 1.3906 0.14062 1.9531 0.42188 0.57031 0.27344 1.0195 0.66406 1.3438 1.1719 0.32031 0.5 0.48438 1.0898 0.48438 1.7656 0 0.6875-0.16797 1.293-0.5 1.8125-0.33594 0.52344-0.79297 0.92188-1.375 1.2031-0.57422 0.28125-1.2266 0.42188-1.9531 0.42188-1.4805 0-2.6172-0.48438-3.4062-1.4531-0.79297-0.97656-1.1875-2.3594-1.1875-4.1406 0-1.25 0.21094-2.3047 0.64062-3.1719 0.42578-0.86328 1.0234-1.5156 1.7969-1.9531 0.76953-0.44531 1.6641-0.67188 2.6875-0.67188 1.1016 0 1.9883 0.20312 2.6562 0.60938l-0.46875 0.92188c-0.53125-0.34375-1.2578-0.51562-2.1719-0.51562-1.2422 0-2.2148 0.39062-2.9219 1.1719-0.69922 0.78125-1.0469 1.918-1.0469 3.4062 0 0.27344 0.015625 0.57812 0.046875 0.92188 0.28125-0.61328 0.72266-1.0859 1.3281-1.4219 0.60156-0.33203 1.3008-0.5 2.0938-0.5zm-0.09375 5.8281c0.8125 0 1.4688-0.21875 1.9688-0.65625 0.50781-0.44531 0.76562-1.0391 0.76562-1.7812 0-0.73828-0.25781-1.3281-0.76562-1.7656-0.5-0.4375-1.1836-0.65625-2.0469-0.65625-0.5625 0-1.0625 0.10938-1.5 0.32812-0.42969 0.21094-0.76562 0.5-1.0156 0.875-0.24219 0.375-0.35938 0.79297-0.35938 1.25 0 0.42969 0.11328 0.82422 0.34375 1.1875 0.22656 0.36719 0.56641 0.66406 1.0156 0.89062 0.44531 0.21875 0.97656 0.32812 1.5938 0.32812z"/>
</g>
</g>
<g fill="#fefefe">
<g transform="translate(611.76 323.63)">
<path d="m7.25-5.875c0.69531 0.24219 1.2344 0.59375 1.6094 1.0625 0.38281 0.46875 0.57812 1.0312 0.57812 1.6875s-0.17969 1.2305-0.53125 1.7188c-0.34375 0.48047-0.84375 0.85156-1.5 1.1094-0.65625 0.26172-1.4297 0.39062-2.3125 0.39062-1.3438 0-2.4023-0.28516-3.1719-0.85938-0.77344-0.57031-1.1562-1.3594-1.1562-2.3594 0-0.66406 0.17969-1.2266 0.54688-1.6875 0.375-0.46875 0.91016-0.82031 1.6094-1.0625-0.57422-0.21875-1.0117-0.53516-1.3125-0.95312-0.29297-0.42578-0.4375-0.92969-0.4375-1.5156 0-0.90625 0.35156-1.625 1.0625-2.1562 0.70703-0.53125 1.6602-0.79688 2.8594-0.79688 0.78125 0 1.4688 0.12109 2.0625 0.35938 0.59375 0.24219 1.0547 0.58594 1.3906 1.0312 0.33203 0.44922 0.5 0.96875 0.5 1.5625 0 0.58594-0.15625 1.0898-0.46875 1.5156-0.3125 0.41797-0.75781 0.73438-1.3281 0.95312zm-4.9375-2.4219c0 0.61719 0.24219 1.1055 0.73438 1.4688 0.5 0.36719 1.1797 0.54688 2.0469 0.54688 0.86328 0 1.5391-0.17969 2.0312-0.54688 0.5-0.36328 0.75-0.84766 0.75-1.4531 0-0.63281-0.25781-1.1289-0.76562-1.4844-0.5-0.36328-1.1719-0.54688-2.0156-0.54688-0.85547 0-1.5312 0.18359-2.0312 0.54688-0.5 0.35547-0.75 0.84375-0.75 1.4688zm2.7812 7.4219c0.98828 0 1.7578-0.20312 2.3125-0.60938 0.5625-0.40625 0.84375-0.95703 0.84375-1.6562 0-0.6875-0.28125-1.2266-0.84375-1.625-0.55469-0.40625-1.3242-0.60938-2.3125-0.60938-0.99219 0-1.7656 0.20312-2.3281 0.60938-0.55469 0.39844-0.82812 0.9375-0.82812 1.625 0 0.71094 0.27344 1.2656 0.82812 1.6719 0.55078 0.39844 1.3281 0.59375 2.3281 0.59375z"/>
</g>
</g>
<g fill="#fefefe">
<g transform="translate(621.96 323.63)">
<path d="m7.25-5.875c0.69531 0.24219 1.2344 0.59375 1.6094 1.0625 0.38281 0.46875 0.57812 1.0312 0.57812 1.6875s-0.17969 1.2305-0.53125 1.7188c-0.34375 0.48047-0.84375 0.85156-1.5 1.1094-0.65625 0.26172-1.4297 0.39062-2.3125 0.39062-1.3438 0-2.4023-0.28516-3.1719-0.85938-0.77344-0.57031-1.1562-1.3594-1.1562-2.3594 0-0.66406 0.17969-1.2266 0.54688-1.6875 0.375-0.46875 0.91016-0.82031 1.6094-1.0625-0.57422-0.21875-1.0117-0.53516-1.3125-0.95312-0.29297-0.42578-0.4375-0.92969-0.4375-1.5156 0-0.90625 0.35156-1.625 1.0625-2.1562 0.70703-0.53125 1.6602-0.79688 2.8594-0.79688 0.78125 0 1.4688 0.12109 2.0625 0.35938 0.59375 0.24219 1.0547 0.58594 1.3906 1.0312 0.33203 0.44922 0.5 0.96875 0.5 1.5625 0 0.58594-0.15625 1.0898-0.46875 1.5156-0.3125 0.41797-0.75781 0.73438-1.3281 0.95312zm-4.9375-2.4219c0 0.61719 0.24219 1.1055 0.73438 1.4688 0.5 0.36719 1.1797 0.54688 2.0469 0.54688 0.86328 0 1.5391-0.17969 2.0312-0.54688 0.5-0.36328 0.75-0.84766 0.75-1.4531 0-0.63281-0.25781-1.1289-0.76562-1.4844-0.5-0.36328-1.1719-0.54688-2.0156-0.54688-0.85547 0-1.5312 0.18359-2.0312 0.54688-0.5 0.35547-0.75 0.84375-0.75 1.4688zm2.7812 7.4219c0.98828 0 1.7578-0.20312 2.3125-0.60938 0.5625-0.40625 0.84375-0.95703 0.84375-1.6562 0-0.6875-0.28125-1.2266-0.84375-1.625-0.55469-0.40625-1.3242-0.60938-2.3125-0.60938-0.99219 0-1.7656 0.20312-2.3281 0.60938-0.55469 0.39844-0.82812 0.9375-0.82812 1.625 0 0.71094 0.27344 1.2656 0.82812 1.6719 0.55078 0.39844 1.3281 0.59375 2.3281 0.59375z"/>
</g>
</g>
<g clip-path="url(#a)">
<path d="m119.52 227.53v120.95m105.79-120.95v120.95m105.79-120.95v120.95m105.79-120.95v120.95m105.79-120.95v120.95m105.79-120.95v120.95m-530.08-122.07h531.2m-531.2 61.598h531.2m-531.2 61.598h531.2"/>
</g>
<g clip-path="url(#b)">
<path transform="matrix(.75 0 0 .75 118.4 225.28)" d="m1.4979 3.0011v161.26m141.06-161.26v161.26m141.05-161.26v161.26m141.05-161.26v161.26m141.05-161.26v161.26m141.06-161.26v161.26m-706.77-162.76h708.27m-708.27 82.13h708.27m-708.27 82.13h708.27" fill="none" stroke="#fefefe" stroke-width="3"/>
</g>
</svg>
