<svg xmlns="http://www.w3.org/2000/svg" xmlns:xlink="http://www.w3.org/1999/xlink" width="500" zoomAndPan="magnify" viewBox="0 0 375 374.999991" height="500" preserveAspectRatio="xMidYMid meet" version="1.0"><defs><clipPath id="c978180d80"><path d="M 0 0 L 374.183594 0 L 374.183594 375 L 0 375 Z M 0 0 " clip-rule="nonzero"/></clipPath><clipPath id="65e972dbb0"><path d="M 17.25 0 L 356.933594 0 C 361.507812 0 365.898438 1.816406 369.132812 5.050781 C 372.367188 8.289062 374.183594 12.675781 374.183594 17.25 L 374.183594 357.75 C 374.183594 362.324219 372.367188 366.710938 369.132812 369.949219 C 365.898438 373.183594 361.507812 375 356.933594 375 L 17.25 375 C 12.675781 375 8.289062 373.183594 5.050781 369.949219 C 1.816406 366.710938 0 362.324219 0 357.75 L 0 17.25 C 0 12.675781 1.816406 8.289062 5.050781 5.050781 C 8.289062 1.816406 12.675781 0 17.25 0 Z M 17.25 0 " clip-rule="nonzero"/></clipPath><clipPath id="3dbb04a9c5"><path d="M 49 49 L 141.480469 49 L 141.480469 326 L 49 326 Z M 49 49 " clip-rule="nonzero"/></clipPath><clipPath id="b23e244296"><path d="M 245.378906 49 L 329 49 L 329 326 L 245.378906 326 Z M 245.378906 49 " clip-rule="nonzero"/></clipPath><clipPath id="44856195cf"><path d="M 152 0 L 245.011719 0 L 245.011719 239 L 152 239 Z M 152 0 " clip-rule="nonzero"/></clipPath><clipPath id="6677893521"><path d="M 153.261719 259.710938 L 221.382812 259.710938 L 221.382812 326.523438 L 153.261719 326.523438 Z M 153.261719 259.710938 " clip-rule="nonzero"/></clipPath><clipPath id="822d9c2dd6"><path d="M 170.511719 259.710938 L 204.082031 259.710938 C 208.65625 259.710938 213.042969 261.527344 216.277344 264.761719 C 219.515625 267.996094 221.332031 272.382812 221.332031 276.960938 L 221.332031 309.273438 C 221.332031 313.851562 219.515625 318.238281 216.277344 321.472656 C 213.042969 324.707031 208.65625 326.523438 204.082031 326.523438 L 170.511719 326.523438 C 165.9375 326.523438 161.546875 324.707031 158.3125 321.472656 C 155.078125 318.238281 153.261719 313.851562 153.261719 309.273438 L 153.261719 276.960938 C 153.261719 272.382812 155.078125 267.996094 158.3125 264.761719 C 161.546875 261.527344 165.9375 259.710938 170.511719 259.710938 Z M 170.511719 259.710938 " clip-rule="nonzero"/></clipPath></defs><g clip-path="url(#c978180d80)"><g clip-path="url(#65e972dbb0)"><path fill="#364987" d="M 0 0 L 374.183594 0 L 374.183594 375.644531 L 0 375.644531 Z M 0 0 " fill-opacity="1" fill-rule="nonzero"/></g></g><g clip-path="url(#3dbb04a9c5)"><path fill="#96c950" d="M 273.855469 325.671875 C 268.960938 325.671875 264.859375 324.015625 261.546875 320.703125 C 258.238281 317.394531 256.582031 313.292969 256.582031 308.398438 L 256.582031 222.039062 C 256.582031 217.144531 258.238281 213.042969 261.546875 209.730469 C 264.859375 206.421875 268.960938 204.765625 273.855469 204.765625 L 308.398438 204.765625 C 313.292969 204.765625 317.394531 206.421875 320.703125 209.730469 C 324.015625 213.042969 325.671875 217.144531 325.671875 222.039062 L 325.671875 308.398438 C 325.671875 313.292969 324.015625 317.394531 320.703125 320.703125 C 317.394531 324.015625 313.292969 325.671875 308.398438 325.671875 Z M 170.222656 325.671875 C 165.328125 325.671875 161.226562 324.015625 157.917969 320.703125 C 154.605469 317.394531 152.949219 313.292969 152.949219 308.398438 L 152.949219 66.589844 C 152.949219 61.695312 154.605469 57.59375 157.917969 54.285156 C 161.226562 50.972656 165.328125 49.320312 170.222656 49.320312 L 204.765625 49.320312 C 209.660156 49.320312 213.761719 50.972656 217.074219 54.285156 C 220.382812 57.59375 222.039062 61.695312 222.039062 66.589844 L 222.039062 308.398438 C 222.039062 313.292969 220.382812 317.394531 217.074219 320.703125 C 213.761719 324.015625 209.660156 325.671875 204.765625 325.671875 Z M 66.589844 325.671875 C 61.695312 325.671875 57.59375 324.015625 54.285156 320.703125 C 50.972656 317.394531 49.320312 313.292969 49.320312 308.398438 L 49.320312 152.949219 C 49.320312 148.058594 50.972656 143.953125 54.285156 140.644531 C 57.59375 137.332031 61.695312 135.679688 66.589844 135.679688 L 101.136719 135.679688 C 106.027344 135.679688 110.128906 137.332031 113.441406 140.644531 C 116.75 143.953125 118.40625 148.058594 118.40625 152.949219 L 118.40625 308.398438 C 118.40625 313.292969 116.75 317.394531 113.441406 320.703125 C 110.128906 324.015625 106.027344 325.671875 101.136719 325.671875 Z M 66.589844 325.671875 " fill-opacity="1" fill-rule="nonzero"/></g><g clip-path="url(#b23e244296)"><path fill="#28abe2" d="M 276.300781 325.671875 C 271.40625 325.671875 267.304688 324.015625 263.992188 320.703125 C 260.683594 317.394531 259.027344 313.292969 259.027344 308.398438 L 259.027344 222.039062 C 259.027344 217.144531 260.683594 213.042969 263.992188 209.730469 C 267.304688 206.421875 271.40625 204.765625 276.300781 204.765625 L 310.84375 204.765625 C 315.738281 204.765625 319.839844 206.421875 323.152344 209.730469 C 326.460938 213.042969 328.117188 217.144531 328.117188 222.039062 L 328.117188 308.398438 C 328.117188 313.292969 326.460938 317.394531 323.152344 320.703125 C 319.839844 324.015625 315.738281 325.671875 310.84375 325.671875 Z M 172.667969 325.671875 C 167.773438 325.671875 163.671875 324.015625 160.363281 320.703125 C 157.050781 317.394531 155.394531 313.292969 155.394531 308.398438 L 155.394531 66.589844 C 155.394531 61.695312 157.050781 57.59375 160.363281 54.285156 C 163.671875 50.972656 167.773438 49.320312 172.667969 49.320312 L 207.210938 49.320312 C 212.105469 49.320312 216.207031 50.972656 219.519531 54.285156 C 222.828125 57.59375 224.484375 61.695312 224.484375 66.589844 L 224.484375 308.398438 C 224.484375 313.292969 222.828125 317.394531 219.519531 320.703125 C 216.207031 324.015625 212.105469 325.671875 207.210938 325.671875 Z M 69.035156 325.671875 C 64.144531 325.671875 60.039062 324.015625 56.730469 320.703125 C 53.417969 317.394531 51.765625 313.292969 51.765625 308.398438 L 51.765625 152.949219 C 51.765625 148.058594 53.417969 143.953125 56.730469 140.644531 C 60.039062 137.332031 64.144531 135.679688 69.035156 135.679688 L 103.582031 135.679688 C 108.472656 135.679688 112.578125 137.332031 115.886719 140.644531 C 119.195312 143.953125 120.851562 148.058594 120.851562 152.949219 L 120.851562 308.398438 C 120.851562 313.292969 119.195312 317.394531 115.886719 320.703125 C 112.578125 324.015625 108.472656 325.671875 103.582031 325.671875 Z M 69.035156 325.671875 " fill-opacity="1" fill-rule="nonzero"/></g><g clip-path="url(#44856195cf)"><path fill="#f7e55b" d="M 377.386719 238.214844 C 372.492188 238.214844 368.390625 236.558594 365.082031 233.25 C 361.769531 229.9375 360.113281 225.835938 360.113281 220.941406 L 360.113281 134.582031 C 360.113281 129.6875 361.769531 125.585938 365.082031 122.277344 C 368.390625 118.964844 372.492188 117.308594 377.386719 117.308594 L 411.929688 117.308594 C 416.824219 117.308594 420.925781 118.964844 424.238281 122.277344 C 427.546875 125.585938 429.203125 129.6875 429.203125 134.582031 L 429.203125 220.941406 C 429.203125 225.835938 427.546875 229.9375 424.238281 233.25 C 420.925781 236.558594 416.824219 238.214844 411.929688 238.214844 Z M 273.753906 238.214844 C 268.863281 238.214844 264.757812 236.558594 261.449219 233.25 C 258.136719 229.9375 256.484375 225.835938 256.484375 220.941406 L 256.484375 -20.867188 C 256.484375 -25.757812 258.136719 -29.863281 261.449219 -33.171875 C 264.757812 -36.480469 268.863281 -38.136719 273.753906 -38.136719 L 308.300781 -38.136719 C 313.191406 -38.136719 317.296875 -36.480469 320.605469 -33.171875 C 323.914062 -29.863281 325.570312 -25.757812 325.570312 -20.867188 L 325.570312 220.941406 C 325.570312 225.835938 323.914062 229.9375 320.605469 233.25 C 317.296875 236.558594 313.191406 238.214844 308.300781 238.214844 Z M 170.125 238.214844 C 165.230469 238.214844 161.128906 236.558594 157.816406 233.25 C 154.507812 229.9375 152.851562 225.835938 152.851562 220.941406 L 152.851562 65.496094 C 152.851562 60.601562 154.507812 56.5 157.816406 53.1875 C 161.128906 49.878906 165.230469 48.222656 170.125 48.222656 L 204.667969 48.222656 C 209.5625 48.222656 213.664062 49.878906 216.972656 53.1875 C 220.285156 56.5 221.9375 60.601562 221.9375 65.496094 L 221.9375 220.941406 C 221.9375 225.835938 220.285156 229.9375 216.972656 233.25 C 213.664062 236.558594 209.5625 238.214844 204.667969 238.214844 Z M 170.125 238.214844 " fill-opacity="1" fill-rule="nonzero"/></g><g clip-path="url(#6677893521)"><g clip-path="url(#822d9c2dd6)"><path fill="#f7e55b" d="M 153.261719 259.710938 L 221.382812 259.710938 L 221.382812 326.523438 L 153.261719 326.523438 Z M 153.261719 259.710938 " fill-opacity="1" fill-rule="nonzero"/></g></g></svg>