<svg xmlns="http://www.w3.org/2000/svg" xmlns:xlink="http://www.w3.org/1999/xlink" zoomAndPan="magnify" preserveAspectRatio="xMidYMid meet" version="1.0" viewBox="77.52 157.61 829.09 213.39"><defs><clipPath id="78ea9511f9"><path d="M 77.519531 157.632812 L 342.890625 157.632812 L 342.890625 370.527344 L 77.519531 370.527344 Z M 77.519531 157.632812 " clip-rule="nonzero"/></clipPath><clipPath id="9a141e2444"><path d="M 604.503906 157.632812 L 906.609375 157.632812 L 906.609375 371 L 604.503906 371 Z M 604.503906 157.632812 " clip-rule="nonzero"/></clipPath><clipPath id="a2487338ec"><path d="M 411.6875 157.632812 L 532.761719 157.632812 L 532.761719 370.847656 L 411.6875 370.847656 Z M 411.6875 157.632812 " clip-rule="nonzero"/></clipPath><clipPath id="43f5c24c12"><path d="M 531.921875 157.632812 L 652.777344 157.632812 L 652.777344 370.847656 L 531.921875 370.847656 Z M 531.921875 157.632812 " clip-rule="nonzero"/></clipPath><clipPath id="8d6aeedc6c"><path d="M 347 157.632812 L 515.921875 157.632812 L 515.921875 370.527344 L 347 370.527344 Z M 347 157.632812 " clip-rule="nonzero"/></clipPath></defs><g clip-path="url(#78ea9511f9)"><path fill="#fefefe" d="M 129.121094 157.609375 L 129.121094 340.445312 C 129.121094 343.546875 126.554688 346.042969 123.371094 346.042969 L 110.523438 346.042969 C 107.339844 346.042969 104.773438 343.546875 104.773438 340.445312 L 104.773438 283.875 L 77.519531 283.875 L 77.519531 355.203125 C 77.519531 363.738281 84.40625 370.609375 92.960938 370.609375 L 141.972656 370.609375 C 150.527344 370.609375 157.414062 363.738281 157.414062 355.203125 L 157.414062 157.609375 Z M 198.300781 157.609375 C 182.714844 157.609375 170.171875 164.902344 170.171875 173.960938 L 170.171875 352.832031 C 170.171875 361.890625 177.257812 370.609375 192.839844 370.609375 L 245.820312 370.609375 L 245.820312 346.042969 L 205.671875 346.042969 C 201.636719 346.042969 198.390625 342.785156 198.390625 338.734375 L 198.390625 315.980469 C 198.390625 311.933594 201.636719 308.671875 205.671875 308.671875 L 245.820312 308.671875 L 245.820312 284.382812 L 206.140625 284.382812 C 201.847656 284.382812 198.390625 280.914062 198.390625 276.601562 L 198.390625 252.382812 C 198.390625 248.070312 201.847656 244.601562 206.140625 244.601562 L 245.820312 244.601562 L 245.820312 157.609375 Z M 275.09375 157.609375 C 266.894531 157.609375 260.296875 164.480469 260.296875 173.015625 L 260.296875 355.203125 C 260.296875 363.738281 266.894531 370.609375 275.09375 370.609375 L 322.066406 370.609375 C 330.265625 370.609375 336.867188 363.738281 336.867188 355.203125 L 336.867188 173.015625 C 336.867188 164.480469 330.265625 157.609375 322.066406 157.609375 Z M 351.007812 157.609375 L 351.007812 370.609375 L 378.394531 370.609375 L 378.394531 309.230469 L 408.605469 309.230469 C 419.117188 309.230469 427.578125 302.679688 427.578125 294.539062 L 427.578125 176.804688 C 427.578125 166.167969 416.53125 157.609375 402.8125 157.609375 Z M 466.484375 157.609375 C 457.425781 157.609375 449.582031 163.808594 448.902344 171.515625 L 431.320312 370.609375 L 458.699219 370.609375 L 464.433594 308.519531 L 489.0625 308.519531 L 494.800781 370.609375 L 524.910156 370.609375 L 504.324219 171.515625 C 503.527344 163.808594 495.59375 157.609375 486.535156 157.609375 Z M 533.730469 157.609375 L 533.730469 370.609375 L 559.746094 370.609375 L 559.746094 308.222656 L 574.6875 308.222656 C 581.210938 308.722656 586.71875 313.835938 587.199219 320.125 L 591.035156 370.609375 L 619.851562 370.609375 L 613.839844 317.902344 C 612.578125 306.828125 608.929688 302.066406 603.628906 296.765625 C 608.636719 291.757812 611.648438 289.9375 611.648438 284.097656 L 611.648438 176.800781 C 611.648438 166.167969 601.320312 157.609375 588.492188 157.609375 Z M 629.820312 157.609375 L 629.820312 370.609375 L 682.914062 370.609375 C 695.347656 370.609375 705.359375 362.046875 705.359375 351.414062 L 705.359375 176.804688 C 705.359375 166.167969 695.347656 157.609375 682.914062 157.609375 Z M 715.230469 157.609375 L 715.230469 284.074219 C 715.230469 296.671875 725.15625 306.8125 737.488281 306.8125 L 766.816406 306.8125 L 766.816406 341.261719 C 766.816406 343.351562 764.628906 345.035156 761.914062 345.035156 C 760.144531 345.035156 758.34375 345.035156 756.542969 345.035156 C 750.230469 345.035156 743.863281 345.035156 738.460938 345.035156 L 738.460938 370.609375 L 770.675781 370.609375 C 782.84375 370.609375 792.640625 363.53125 792.640625 354.738281 L 792.640625 157.609375 L 766.816406 157.609375 L 766.816406 247.332031 C 766.816406 247.34375 766.816406 247.359375 766.816406 247.371094 L 766.816406 282.867188 L 747.238281 282.867188 C 744.457031 282.867188 742.214844 280.214844 742.214844 276.917969 L 742.214844 157.609375 L 715.226562 157.609375 Z M 806.117188 157.609375 L 806.117188 306.800781 L 831.335938 306.800781 L 831.335938 157.609375 Z M 559.746094 243.59375 L 576.769531 243.59375 C 580.757812 243.59375 583.96875 247.433594 583.96875 252.207031 L 583.96875 274.765625 C 583.96875 279.535156 580.757812 283.375 576.769531 283.375 L 559.746094 283.375 Z M 654.410156 243.59375 L 672.9375 243.59375 C 677.277344 243.59375 680.769531 247.671875 680.769531 252.738281 L 680.769531 335.894531 C 680.769531 340.960938 677.277344 345.035156 672.9375 345.035156 L 654.410156 345.035156 Z M 475.621094 244.265625 L 477.875 244.265625 C 480.785156 244.265625 483.277344 245.855469 483.457031 247.832031 L 486.78125 283.785156 L 466.71875 283.785156 L 470.039062 247.832031 C 470.222656 245.855469 472.710938 244.265625 475.621094 244.265625 Z M 296.816406 244.601562 L 300.34375 244.601562 C 304.902344 244.601562 308.570312 247.875 308.570312 251.941406 L 308.570312 338.707031 C 308.570312 342.773438 304.902344 346.042969 300.34375 346.042969 L 296.816406 346.042969 C 292.257812 346.042969 288.589844 342.773438 288.589844 338.707031 L 288.589844 251.941406 C 288.589844 247.875 292.257812 244.601562 296.816406 244.601562 Z M 378.394531 245.039062 L 394.574219 245.039062 C 397.765625 245.039062 400.335938 248.320312 400.335938 252.398438 L 400.335938 277.023438 C 400.335938 281.101562 397.765625 284.382812 394.574219 284.382812 L 378.394531 284.382812 Z M 806.117188 315.6875 L 806.117188 339.621094 L 831.335938 339.621094 L 831.335938 315.6875 Z M 806.117188 315.6875 " fill-opacity="1" fill-rule="nonzero"/></g><g clip-path="url(#9a141e2444)"><path fill="#fefefe" d="M 204.082031 157.796875 L 204.082031 340.636719 C 204.082031 343.734375 201.519531 346.230469 198.332031 346.230469 L 185.488281 346.230469 C 182.300781 346.230469 179.738281 343.734375 179.738281 340.636719 L 179.738281 284.0625 L 152.484375 284.0625 L 152.484375 355.390625 C 152.484375 363.925781 159.371094 370.796875 167.925781 370.796875 L 216.9375 370.796875 C 225.492188 370.796875 232.378906 363.925781 232.378906 355.390625 L 232.378906 157.796875 Z M 273.261719 157.796875 C 257.679688 157.796875 245.132812 165.089844 245.132812 174.148438 L 245.132812 353.019531 C 245.132812 362.082031 252.222656 370.796875 267.804688 370.796875 L 320.785156 370.796875 L 320.785156 346.230469 L 280.632812 346.230469 C 276.601562 346.230469 273.355469 342.972656 273.355469 338.921875 L 273.355469 316.171875 C 273.355469 312.121094 276.601562 308.863281 280.632812 308.863281 L 320.785156 308.863281 L 320.785156 284.570312 L 281.101562 284.570312 C 276.808594 284.570312 273.355469 281.101562 273.355469 276.789062 L 273.355469 252.570312 C 273.355469 248.257812 276.808594 244.789062 281.101562 244.789062 L 320.785156 244.789062 L 320.785156 157.796875 Z M 350.058594 157.796875 C 341.859375 157.796875 335.257812 164.667969 335.257812 173.203125 L 335.257812 355.390625 C 335.257812 363.925781 341.859375 370.796875 350.058594 370.796875 L 397.03125 370.796875 C 405.230469 370.796875 411.832031 363.925781 411.832031 355.390625 L 411.832031 173.203125 C 411.832031 164.667969 405.230469 157.796875 397.03125 157.796875 Z M 425.972656 157.796875 L 425.972656 370.796875 L 453.359375 370.796875 L 453.359375 309.421875 L 483.570312 309.421875 C 494.082031 309.421875 502.542969 302.867188 502.542969 294.726562 L 502.542969 176.992188 C 502.542969 166.359375 491.496094 157.796875 477.773438 157.796875 Z M 541.449219 157.796875 C 532.386719 157.796875 524.546875 164 523.867188 171.703125 L 506.285156 370.796875 L 533.660156 370.796875 L 539.398438 308.707031 L 564.027344 308.707031 L 569.761719 370.796875 L 599.875 370.796875 L 579.289062 171.703125 C 578.492188 164 570.558594 157.796875 561.5 157.796875 Z M 608.691406 157.796875 L 608.691406 370.796875 L 634.710938 370.796875 L 634.710938 308.414062 L 649.652344 308.414062 C 656.175781 308.910156 661.683594 314.023438 662.160156 320.3125 L 665.996094 370.796875 L 694.816406 370.796875 L 688.804688 318.09375 C 687.542969 307.019531 683.894531 302.253906 678.59375 296.953125 C 683.601562 291.945312 686.609375 290.125 686.609375 284.285156 L 686.609375 176.992188 C 686.609375 166.355469 676.285156 157.796875 663.457031 157.796875 Z M 704.78125 157.796875 L 704.78125 370.796875 L 757.875 370.796875 C 770.3125 370.796875 780.324219 362.238281 780.324219 351.601562 L 780.324219 176.992188 C 780.324219 166.359375 770.3125 157.796875 757.875 157.796875 Z M 790.191406 157.796875 L 790.191406 284.265625 C 790.191406 296.859375 800.121094 307 812.453125 307 L 841.78125 307 L 841.78125 341.449219 C 841.78125 343.539062 839.59375 345.226562 836.875 345.226562 C 835.105469 345.226562 833.308594 345.226562 831.503906 345.226562 C 825.191406 345.226562 818.828125 345.226562 813.425781 345.226562 L 813.425781 370.796875 L 845.636719 370.796875 C 857.804688 370.796875 867.601562 363.71875 867.601562 354.925781 L 867.601562 157.796875 L 841.78125 157.796875 L 841.78125 247.519531 C 841.78125 247.535156 841.78125 247.546875 841.78125 247.5625 L 841.78125 283.054688 L 822.199219 283.054688 C 819.417969 283.054688 817.179688 280.402344 817.179688 277.105469 L 817.179688 157.796875 Z M 881.078125 157.796875 L 881.078125 306.988281 L 906.296875 306.988281 L 906.296875 157.796875 Z M 634.710938 243.785156 L 651.734375 243.785156 C 655.71875 243.785156 658.933594 247.625 658.933594 252.394531 L 658.933594 274.953125 C 658.933594 279.722656 655.71875 283.5625 651.734375 283.5625 L 634.710938 283.5625 Z M 729.375 243.785156 L 747.898438 243.785156 C 752.238281 243.785156 755.734375 247.859375 755.734375 252.925781 L 755.734375 336.085938 C 755.734375 341.148438 752.238281 345.226562 747.898438 345.226562 L 729.375 345.226562 Z M 550.585938 244.453125 L 552.839844 244.453125 C 555.75 244.453125 558.238281 246.042969 558.421875 248.023438 L 561.742188 283.972656 L 541.683594 283.972656 L 545.003906 248.023438 C 545.1875 246.042969 547.675781 244.453125 550.585938 244.453125 Z M 371.78125 244.792969 L 375.308594 244.792969 C 379.867188 244.792969 383.535156 248.0625 383.535156 252.128906 L 383.535156 338.894531 C 383.535156 342.960938 379.867188 346.230469 375.308594 346.230469 L 371.78125 346.230469 C 367.222656 346.230469 363.554688 342.960938 363.554688 338.894531 L 363.554688 252.128906 C 363.554688 248.0625 367.222656 244.789062 371.78125 244.792969 Z M 453.359375 245.226562 L 469.539062 245.226562 C 472.730469 245.226562 475.300781 248.511719 475.300781 252.585938 L 475.300781 277.210938 C 475.300781 281.289062 472.730469 284.570312 469.539062 284.570312 L 453.359375 284.570312 Z M 881.078125 315.875 L 881.078125 339.8125 L 906.296875 339.8125 L 906.296875 315.875 Z M 881.078125 315.875 " fill-opacity="1" fill-rule="nonzero"/></g><g clip-path="url(#a2487338ec)"><path fill="#28abe2" d="M 603.445312 281.617188 C 603.492188 286.757812 603.535156 291.945312 603.535156 297.085938 C 603.535156 313.535156 603.535156 329.980469 603.535156 346.425781 C 603.535156 349.882812 603.535156 349.882812 600.078125 349.617188 C 595.644531 338.753906 591.210938 327.894531 586.773438 317.078125 C 582.652344 306.972656 578.441406 296.910156 574.359375 286.804688 C 573.828125 285.472656 573.253906 284.898438 571.699219 284.898438 C 545.453125 284.941406 519.25 284.941406 493.003906 284.898438 C 491.496094 284.898438 490.875 285.429688 490.296875 286.757812 C 481.652344 307.28125 472.960938 327.761719 464.316406 348.285156 C 463.339844 350.636719 463.339844 350.636719 465.957031 350.636719 C 471.851562 350.636719 477.792969 350.679688 483.691406 350.589844 C 485.242188 350.546875 485.6875 351.035156 485.6875 352.585938 C 485.597656 357.992188 485.597656 363.355469 485.6875 368.765625 C 485.6875 370.226562 485.421875 370.804688 483.78125 370.804688 C 460.414062 370.761719 437.09375 370.761719 413.726562 370.804688 C 412.21875 370.804688 411.644531 370.449219 411.6875 368.808594 C 411.777344 363.136719 411.777344 357.417969 411.6875 351.742188 C 411.644531 350.015625 412.265625 349.660156 413.859375 349.703125 C 420.378906 349.792969 426.851562 349.703125 433.367188 349.792969 C 434.789062 349.792969 435.40625 349.351562 435.941406 348.0625 C 459.835938 291.8125 483.78125 235.605469 507.679688 179.355469 C 510.515625 172.703125 513.351562 166.054688 516.144531 159.40625 C 516.679688 158.121094 517.34375 157.722656 518.761719 157.722656 C 528.871094 157.765625 539.023438 157.8125 549.132812 157.722656 C 550.816406 157.722656 551.527344 158.296875 552.148438 159.804688 C 568.953125 199.921875 585.800781 239.992188 602.691406 280.066406 C 602.871094 280.597656 603.179688 281.085938 603.445312 281.617188 Z M 564.828125 263.976562 C 554.097656 237.910156 543.457031 212.023438 532.640625 185.738281 C 532.242188 186.578125 532.0625 186.890625 531.929688 187.199219 C 521.511719 212.15625 511.089844 237.113281 500.628906 262.070312 C 499.875 263.886719 500.363281 264.109375 502.089844 264.109375 C 522.308594 264.0625 542.570312 264.0625 562.789062 264.0625 C 563.410156 264.0625 563.941406 264.019531 564.828125 263.976562 Z M 564.828125 263.976562 " fill-opacity="1" fill-rule="nonzero"/></g><g clip-path="url(#43f5c24c12)"><path fill="#28abe2" d="M 461.015625 281.617188 C 460.972656 286.757812 460.929688 291.945312 460.929688 297.085938 C 460.929688 313.535156 460.929688 329.980469 460.929688 346.425781 C 460.929688 349.882812 460.929688 349.882812 464.386719 349.617188 C 468.820312 338.753906 473.253906 327.894531 477.6875 317.078125 C 481.8125 306.972656 486.023438 296.910156 490.101562 286.804688 C 490.632812 285.472656 491.210938 284.898438 492.761719 284.898438 C 519.011719 284.941406 545.214844 284.941406 571.460938 284.898438 C 572.96875 284.898438 573.589844 285.429688 574.164062 286.757812 C 582.8125 307.28125 591.5 327.761719 600.148438 348.285156 C 601.121094 350.636719 601.121094 350.636719 598.507812 350.636719 C 592.609375 350.636719 586.667969 350.679688 580.773438 350.589844 C 579.21875 350.546875 578.777344 351.035156 578.777344 352.585938 C 578.867188 357.992188 578.867188 363.355469 578.777344 368.765625 C 578.777344 370.226562 579.042969 370.804688 580.683594 370.804688 C 604.050781 370.761719 627.371094 370.761719 650.734375 370.804688 C 652.242188 370.804688 652.820312 370.449219 652.777344 368.808594 C 652.6875 363.136719 652.6875 357.417969 652.777344 351.742188 C 652.820312 350.015625 652.199219 349.660156 650.601562 349.703125 C 644.085938 349.792969 637.613281 349.703125 631.09375 349.792969 C 629.675781 349.792969 629.054688 349.351562 628.523438 348.0625 C 604.625 291.8125 580.683594 235.605469 556.785156 179.355469 C 553.949219 172.703125 551.109375 166.054688 548.316406 159.40625 C 547.785156 158.121094 547.121094 157.722656 545.699219 157.722656 C 535.59375 157.765625 525.4375 157.8125 515.332031 157.722656 C 513.644531 157.722656 512.9375 158.296875 512.316406 159.804688 C 495.511719 199.921875 478.664062 239.992188 461.769531 280.066406 C 461.59375 280.597656 461.28125 281.085938 461.015625 281.617188 Z M 499.636719 263.976562 C 510.363281 237.910156 521.003906 212.023438 531.824219 185.738281 C 532.222656 186.578125 532.398438 186.890625 532.53125 187.199219 C 542.953125 212.15625 553.371094 237.113281 563.835938 262.070312 C 564.589844 263.886719 564.101562 264.109375 562.371094 264.109375 C 542.152344 264.0625 521.890625 264.0625 501.675781 264.0625 C 501.054688 264.0625 500.523438 264.019531 499.636719 263.976562 Z M 499.636719 263.976562 " fill-opacity="1" fill-rule="nonzero"/></g><g clip-path="url(#8d6aeedc6c)"><path fill="#96c950" d="M 369.996094 281.429688 C 370.039062 280.546875 370.085938 279.660156 370.085938 278.777344 C 370.085938 246.242188 370.085938 213.710938 370.128906 181.179688 C 370.128906 179.007812 369.597656 178.476562 367.425781 178.523438 C 361.582031 178.699219 355.777344 178.523438 349.933594 178.609375 C 348.515625 178.609375 347.851562 178.390625 347.851562 176.75 C 347.941406 170.996094 347.941406 165.242188 347.851562 159.488281 C 347.808594 157.941406 348.425781 157.71875 349.757812 157.71875 C 379.871094 157.761719 409.988281 157.585938 440.101562 157.894531 C 454.894531 158.074219 469.554688 159.933594 483.328125 165.773438 C 501.882812 173.652344 512.027344 187.90625 514.859375 207.648438 C 516.542969 219.375 516.277344 231.015625 513.265625 242.523438 C 508.527344 260.316406 496.96875 271.78125 479.875 278.066406 C 469.464844 281.875 458.660156 283.554688 447.675781 284.308594 C 432.175781 285.328125 416.675781 284.664062 401.21875 284.796875 C 399.269531 284.796875 398.738281 285.28125 398.738281 287.230469 C 398.828125 307.234375 398.828125 327.199219 398.738281 347.203125 C 398.738281 349.109375 399.3125 349.550781 401.128906 349.507812 C 407.109375 349.417969 413.085938 349.507812 419.066406 349.417969 C 420.617188 349.375 421.058594 349.859375 421.058594 351.410156 C 420.96875 357.074219 420.96875 362.785156 421.058594 368.449219 C 421.101562 370.222656 420.394531 370.53125 418.890625 370.53125 C 395.769531 370.488281 372.695312 370.488281 349.578125 370.53125 C 347.984375 370.53125 347.363281 370.222656 347.410156 368.496094 C 347.542969 362.828125 347.496094 357.121094 347.410156 351.453125 C 347.410156 349.949219 347.808594 349.417969 349.402344 349.460938 C 355.160156 349.507812 360.917969 349.417969 366.675781 349.417969 C 370.128906 349.683594 370.128906 349.683594 370.128906 346.230469 C 370.128906 329.808594 370.128906 313.386719 370.128906 296.96875 C 370.085938 291.746094 369.996094 286.566406 369.996094 281.429688 Z M 398.78125 221.457031 C 398.78125 234.867188 398.828125 248.277344 398.738281 261.734375 C 398.738281 263.371094 399.003906 264.035156 400.863281 263.992188 C 412.070312 263.902344 423.273438 264.035156 434.523438 263.902344 C 441.875 263.859375 449.226562 263.328125 456.488281 261.691406 C 470.085938 258.59375 479.695312 250.980469 483.285156 237.125 C 486.074219 226.371094 486.027344 215.523438 483.238281 204.769531 C 480.359375 193.792969 473.496094 186.3125 462.777344 182.460938 C 454.320312 179.40625 445.507812 178.789062 436.648438 178.609375 C 424.78125 178.390625 412.910156 178.609375 400.996094 178.523438 C 399.226562 178.523438 398.78125 179.007812 398.78125 180.734375 C 398.828125 194.324219 398.78125 207.910156 398.78125 221.457031 Z M 398.78125 221.457031 " fill-opacity="1" fill-rule="nonzero"/></g></svg>